<svg width="42" height="42" viewBox="0 0 42 42" fill="none" xmlns="http://www.w3.org/2000/svg">
<g id="Group 2">
<circle id="Ellipse 1" cx="21" cy="21" r="21" fill="white"/>
<path id="Vector" d="M29.9 11H12.1C11.8083 11 11.5285 11.1159 11.3222 11.3222C11.1159 11.5285 11 11.8083 11 12.1V29.9C11 30.1917 11.1159 30.4715 11.3222 30.6778C11.5285 30.8841 11.8083 31 12.1 31H21.68V23.25H19.08V20.25H21.68V18C21.6261 17.4718 21.6885 16.9381 21.8627 16.4365C22.0369 15.9349 22.3188 15.4775 22.6885 15.0964C23.0582 14.7153 23.5068 14.4196 24.0028 14.2302C24.4989 14.0408 25.0304 13.9623 25.56 14C26.3383 13.9952 27.1163 14.0353 27.89 14.12V16.82H26.3C25.04 16.82 24.8 17.42 24.8 18.29V20.22H27.8L27.41 23.22H24.8V31H29.9C30.0445 31 30.1875 30.9715 30.321 30.9163C30.4544 30.861 30.5757 30.78 30.6778 30.6778C30.78 30.5757 30.861 30.4544 30.9163 30.321C30.9715 30.1875 31 30.0445 31 29.9V12.1C31 11.9555 30.9715 11.8125 30.9163 11.679C30.861 11.5456 30.78 11.4243 30.6778 11.3222C30.5757 11.22 30.4544 11.139 30.321 11.0837C30.1875 11.0285 30.0445 11 29.9 11Z" fill="#EF4934"/>
</g>
</svg>
