<svg width="42" height="42" viewBox="0 0 42 42" fill="none" xmlns="http://www.w3.org/2000/svg">
<g id="Group 3">
<circle id="Ellipse 1" cx="21" cy="21" r="21" fill="white"/>
<path id="Vector" d="M28.7778 11C29.3671 11 29.9324 11.2341 30.3491 11.6509C30.7659 12.0676 31 12.6329 31 13.2222V28.7778C31 29.3671 30.7659 29.9324 30.3491 30.3491C29.9324 30.7659 29.3671 31 28.7778 31H13.2222C12.6329 31 12.0676 30.7659 11.6509 30.3491C11.2341 29.9324 11 29.3671 11 28.7778V13.2222C11 12.6329 11.2341 12.0676 11.6509 11.6509C12.0676 11.2341 12.6329 11 13.2222 11H28.7778ZM28.2222 28.2222V22.3333C28.2222 21.3727 27.8406 20.4513 27.1613 19.772C26.482 19.0927 25.5607 18.7111 24.6 18.7111C23.6556 18.7111 22.5556 19.2889 22.0222 20.1556V18.9222H18.9222V28.2222H22.0222V22.7444C22.0222 21.8889 22.7111 21.1889 23.5667 21.1889C23.9792 21.1889 24.3749 21.3528 24.6666 21.6445C24.9583 21.9362 25.1222 22.3319 25.1222 22.7444V28.2222H28.2222ZM15.3111 17.1778C15.8062 17.1778 16.281 16.9811 16.631 16.631C16.9811 16.281 17.1778 15.8062 17.1778 15.3111C17.1778 14.2778 16.3444 13.4333 15.3111 13.4333C14.8131 13.4333 14.3355 13.6312 13.9833 13.9833C13.6312 14.3355 13.4333 14.8131 13.4333 15.3111C13.4333 16.3444 14.2778 17.1778 15.3111 17.1778ZM16.8556 28.2222V18.9222H13.7778V28.2222H16.8556Z" fill="#EF4934"/>
</g>
</svg>
