<svg width="42" height="42" viewBox="0 0 42 42" fill="none" xmlns="http://www.w3.org/2000/svg">
<circle cx="21" cy="21" r="21" fill="white"/>
<path d="M21 17.6714C19.1571 17.6714 17.6714 19.1714 17.6714 21C17.6714 22.8286 19.1714 24.3286 21 24.3286C22.8286 24.3286 24.3286 22.8286 24.3286 21C24.3286 19.1714 22.8286 17.6714 21 17.6714ZM31 21C31 19.6143 31 18.2571 30.9286 16.8714C30.8571 15.2714 30.4857 13.8429 29.3143 12.6857C28.1429 11.5143 26.7286 11.1429 25.1286 11.0714C23.7429 11 22.3857 11 21 11C19.6143 11 18.2571 11 16.8714 11.0714C15.2714 11.1429 13.8429 11.5143 12.6857 12.6857C11.5143 13.8571 11.1429 15.2714 11.0714 16.8714C11 18.2571 11 19.6143 11 21C11 22.3857 11 23.7429 11.0714 25.1286C11.1429 26.7286 11.5143 28.1571 12.6857 29.3143C13.8571 30.4857 15.2714 30.8571 16.8714 30.9286C18.2571 31 19.6143 31 21 31C22.3857 31 23.7429 31 25.1286 30.9286C26.7286 30.8571 28.1571 30.4857 29.3143 29.3143C30.4857 28.1429 30.8571 26.7286 30.9286 25.1286C31.0143 23.7571 31 22.3857 31 21ZM21 26.1286C18.1571 26.1286 15.8714 23.8429 15.8714 21C15.8714 18.1571 18.1571 15.8714 21 15.8714C23.8429 15.8714 26.1286 18.1571 26.1286 21C26.1286 23.8429 23.8429 26.1286 21 26.1286ZM26.3429 16.8571C25.6857 16.8571 25.1429 16.3286 25.1429 15.6571C25.1429 14.9857 25.6714 14.4571 26.3429 14.4571C27.0143 14.4571 27.5429 14.9857 27.5429 15.6571C27.5465 15.8136 27.5179 15.9692 27.4589 16.1142C27.4 16.2592 27.3118 16.3905 27.2 16.5C27.0905 16.6118 26.9592 16.7 26.8142 16.7589C26.6692 16.8179 26.5136 16.8465 26.3571 16.8429L26.3429 16.8571Z" fill="#221F1F"/>
</svg>
