<svg width="190" height="30" viewBox="0 0 190 30" fill="none" xmlns="http://www.w3.org/2000/svg">
<g id="Group">
<g id="Group 5">
<g id="Group_2">
<path id="Vector" d="M43.7849 24.6611H42.3209V15.9104H44.6167L47.2785 21.4004L49.9403 15.9104H52.2361V24.6611H50.7721V17.8069L47.7111 23.8958H46.8792L43.8182 17.8069V24.6611H43.7849Z" fill="white"/>
<path id="Vector_2" d="M57.3933 22.6647L56.5282 24.6611H54.9644L58.824 15.9104H60.3878L64.2474 24.6611H62.6504L61.7853 22.6647H57.3933ZM61.1531 21.3006L59.556 17.6738L57.9589 21.3006H61.1531Z" fill="white"/>
<path id="Vector_3" d="M69.6044 17.0747C69.1718 17.0747 68.8058 17.1745 68.5396 17.3409C68.2735 17.5072 68.1404 17.7734 68.1404 18.1394C68.1404 18.5054 68.2735 18.7716 68.5396 18.938C68.8058 19.1376 69.4047 19.3372 70.3031 19.5369C71.2015 19.7698 71.8669 20.0692 72.3327 20.4685C72.7985 20.8678 73.0314 21.4334 73.0314 22.1987C73.0314 22.9639 72.732 23.5961 72.1663 24.0619C71.6007 24.5277 70.8354 24.7607 69.9038 24.7607C68.5396 24.7607 67.3086 24.2948 66.2438 23.3299L67.1755 22.1987C68.0738 22.9639 68.9722 23.3632 69.9371 23.3632C70.4029 23.3632 70.8022 23.2634 71.0684 23.0638C71.3345 22.8641 71.5009 22.5979 71.5009 22.2319C71.5009 21.8992 71.3678 21.633 71.1016 21.4334C70.8355 21.2338 70.3696 21.0674 69.7375 20.9343C69.1053 20.7679 68.6062 20.6349 68.2735 20.5018C67.9407 20.3687 67.6413 20.2023 67.3751 20.0027C66.8427 19.6034 66.6098 19.0045 66.6098 18.206C66.6098 17.4074 66.9093 16.7752 67.5082 16.3427C68.1071 15.9102 68.8391 15.6772 69.7042 15.6772C70.2698 15.6772 70.8355 15.7771 71.3678 15.9434C71.9335 16.1431 72.3993 16.376 72.7985 16.7087L72 17.84C71.7338 17.6071 71.4011 17.4074 70.9353 17.2743C70.4695 17.1412 70.0369 17.0747 69.6044 17.0747Z" fill="white"/>
<path id="Vector_4" d="M79.6525 17.2746V24.6944H78.1886V17.2746H75.5268V15.9104H82.3144V17.2746H79.6525Z" fill="white"/>
<path id="Vector_5" d="M91.5975 15.9104V17.3078H86.906V19.6369H91.0984V20.9678H86.906V23.2969H91.7306V24.6944H85.4088V15.9437H91.5975V15.9104Z" fill="white"/>
<path id="Vector_6" d="M102.145 18.7386C102.145 20.1693 101.513 21.1009 100.248 21.4669L102.544 24.6611H100.648L98.5514 21.6998H96.6216V24.6611H95.1576V15.9104H98.4183C99.7492 15.9104 100.714 16.1433 101.28 16.5759C101.845 17.0417 102.145 17.7404 102.145 18.7386ZM100.182 20.0029C100.481 19.7367 100.648 19.3375 100.648 18.7386C100.648 18.1729 100.481 17.7737 100.182 17.574C99.8823 17.3744 99.3167 17.2413 98.5181 17.2413H96.6216V20.3689H98.4516C99.2834 20.3689 99.8823 20.2358 100.182 20.0029Z" fill="white"/>
<path id="Vector_7" d="M108.433 17.0747C108.001 17.0747 107.635 17.1745 107.369 17.3409C107.102 17.5072 106.969 17.7734 106.969 18.1394C106.969 18.5054 107.102 18.7716 107.369 18.938C107.635 19.1043 108.234 19.3372 109.132 19.5369C110.03 19.7698 110.696 20.0692 111.162 20.4685C111.628 20.8678 111.86 21.4334 111.86 22.1987C111.86 22.9639 111.561 23.5961 110.995 24.0619C110.43 24.5277 109.664 24.7607 108.733 24.7607C107.369 24.7607 106.138 24.2948 105.073 23.3299L106.004 22.1987C106.903 22.9639 107.801 23.3632 108.766 23.3632C109.232 23.3632 109.631 23.2634 109.897 23.0638C110.164 22.8641 110.33 22.5979 110.33 22.2319C110.33 21.8992 110.197 21.633 109.931 21.4334C109.664 21.2338 109.199 21.0674 108.566 20.9343C107.934 20.7679 107.435 20.6349 107.102 20.5018C106.77 20.3687 106.47 20.2023 106.204 20.0027C105.672 19.6034 105.439 19.0045 105.439 18.206C105.439 17.4074 105.738 16.7752 106.337 16.3427C106.936 15.9102 107.668 15.6772 108.533 15.6772C109.099 15.6772 109.664 15.7771 110.197 15.9434C110.762 16.1431 111.228 16.376 111.628 16.7087L110.829 17.84C110.563 17.6071 110.23 17.4074 109.764 17.2743C109.298 17.1412 108.866 17.0747 108.433 17.0747Z" fill="white"/>
</g>
<g id="Group_3">
<path id="Vector_8" d="M121.425 22.265L120.593 24.1616H119.096L122.756 15.8767H124.253L127.913 24.1616H126.416L125.584 22.265H121.425ZM125.019 20.9674L123.521 17.5736L122.024 20.9674H125.019Z" fill="white"/>
<path id="Vector_9" d="M134.235 22.8641C134.701 22.8641 135.133 22.7976 135.466 22.6312C135.799 22.4648 136.165 22.1987 136.564 21.8659L137.463 22.7976C136.597 23.7625 135.533 24.2616 134.268 24.2616C133.004 24.2616 131.973 23.8623 131.141 23.0637C130.309 22.2652 129.91 21.2338 129.91 20.0027C129.91 18.7716 130.342 17.7401 131.174 16.9083C132.006 16.0765 133.071 15.6772 134.368 15.6772C135.666 15.6772 136.731 16.1431 137.596 17.108L136.697 18.0729C136.298 17.7069 135.932 17.4407 135.566 17.2743C135.2 17.108 134.801 17.0414 134.335 17.0414C133.503 17.0414 132.804 17.3076 132.239 17.84C131.673 18.3723 131.374 19.071 131.374 19.9029C131.374 20.7347 131.64 21.4334 132.205 21.999C132.804 22.5979 133.47 22.8641 134.235 22.8641Z" fill="white"/>
<path id="Vector_10" d="M141.755 22.265L140.923 24.1616H139.426L143.086 15.8767H144.583L148.243 24.1616H146.746L145.914 22.265H141.755ZM145.348 20.9674L143.851 17.5736L142.354 20.9674H145.348Z" fill="white"/>
<path id="Vector_11" d="M157.06 16.9414C157.859 17.6734 158.258 18.6716 158.258 19.9692C158.258 21.2669 157.859 22.265 157.094 23.0303C156.328 23.7956 155.13 24.1616 153.533 24.1616H150.772V15.8767H153.6C155.13 15.8767 156.262 16.2427 157.06 16.9414ZM156.861 20.0025C156.861 18.106 155.763 17.1743 153.6 17.1743H152.202V22.8307H153.766C154.764 22.8307 155.53 22.5978 156.062 22.0987C156.594 21.6329 156.861 20.9341 156.861 20.0025Z" fill="white"/>
<path id="Vector_12" d="M167.275 15.8769V17.1745H162.849V19.3705H166.809V20.6016H162.849V22.8309H167.408V24.1285H161.452V15.8436H167.275V15.8769Z" fill="white"/>
<path id="Vector_13" d="M172.033 24.1285H170.635V15.8436H172.798L175.293 21.0341L177.789 15.8436H179.952V24.1285H178.554V17.6736L175.659 23.4298H174.894L172.033 17.6736V24.1285Z" fill="white"/>
<path id="Vector_14" d="M186.939 24.1285H185.508V20.8678L182.414 15.8436H183.944L186.207 19.6034L188.47 15.8436H190L186.906 20.8678V24.1285H186.939Z" fill="white"/>
</g>
</g>
<g id="Group_4">
<g id="Group_5">
<path id="Vector_15" d="M21.5938 14.54L29.1133 29.9452V8.05188L21.5938 14.54Z" fill="#F89B6C"/>
<path id="Vector_16" d="M6.10352e-05 8.05188V29.9452L7.48639 14.54L6.10352e-05 8.05188Z" fill="#F89B6C"/>
<path id="Vector_17" d="M21.594 14.5401L14.5402 0L7.48639 14.5401L14.5402 20.629L21.594 14.5401Z" fill="#FDB714"/>
<path id="Vector_18" d="M14.5402 20.629L7.48639 14.5402L6.10352e-05 29.9454H29.1135L21.594 14.5402L14.5402 20.629Z" fill="#F04934"/>
</g>
</g>
</g>
</svg>
