<svg width="192" height="42" viewBox="0 0 192 42" fill="none" xmlns="http://www.w3.org/2000/svg">
<circle cx="21" cy="21" r="21" fill="white"/>
<path d="M29.9 11H12.1C11.8083 11 11.5285 11.1159 11.3222 11.3222C11.1159 11.5285 11 11.8083 11 12.1V29.9C11 30.1917 11.1159 30.4715 11.3222 30.6778C11.5285 30.8841 11.8083 31 12.1 31H21.68V23.25H19.08V20.25H21.68V18C21.6261 17.4718 21.6885 16.9381 21.8627 16.4365C22.0369 15.9349 22.3188 15.4775 22.6885 15.0964C23.0582 14.7153 23.5068 14.4196 24.0028 14.2302C24.4989 14.0408 25.0304 13.9623 25.56 14C26.3383 13.9952 27.1163 14.0353 27.89 14.12V16.82H26.3C25.04 16.82 24.8 17.42 24.8 18.29V20.22H27.8L27.41 23.22H24.8V31H29.9C30.0445 31 30.1875 30.9715 30.321 30.9163C30.4544 30.861 30.5757 30.78 30.6778 30.6778C30.78 30.5757 30.861 30.4544 30.9163 30.321C30.9715 30.1875 31 30.0445 31 29.9V12.1C31 11.9555 30.9715 11.8125 30.9163 11.679C30.861 11.5456 30.78 11.4243 30.6778 11.3222C30.5757 11.22 30.4544 11.139 30.321 11.0837C30.1875 11.0285 30.0445 11 29.9 11Z" fill="#221F1F"/>
<circle cx="96" cy="21" r="21" fill="white"/>
<path d="M103.778 11C104.367 11 104.932 11.2341 105.349 11.6509C105.766 12.0676 106 12.6329 106 13.2222V28.7778C106 29.3671 105.766 29.9324 105.349 30.3491C104.932 30.7659 104.367 31 103.778 31H88.2222C87.6329 31 87.0676 30.7659 86.6509 30.3491C86.2341 29.9324 86 29.3671 86 28.7778V13.2222C86 12.6329 86.2341 12.0676 86.6509 11.6509C87.0676 11.2341 87.6329 11 88.2222 11H103.778ZM103.222 28.2222V22.3333C103.222 21.3727 102.841 20.4513 102.161 19.772C101.482 19.0927 100.561 18.7111 99.6 18.7111C98.6556 18.7111 97.5556 19.2889 97.0222 20.1556V18.9222H93.9222V28.2222H97.0222V22.7444C97.0222 21.8889 97.7111 21.1889 98.5667 21.1889C98.9792 21.1889 99.3749 21.3528 99.6666 21.6445C99.9583 21.9362 100.122 22.3319 100.122 22.7444V28.2222H103.222ZM90.3111 17.1778C90.8062 17.1778 91.281 16.9811 91.631 16.631C91.9811 16.281 92.1778 15.8062 92.1778 15.3111C92.1778 14.2778 91.3444 13.4333 90.3111 13.4333C89.8131 13.4333 89.3355 13.6312 88.9833 13.9833C88.6312 14.3355 88.4333 14.8131 88.4333 15.3111C88.4333 16.3444 89.2778 17.1778 90.3111 17.1778ZM91.8556 28.2222V18.9222H88.7778V28.2222H91.8556Z" fill="#221F1F"/>
<circle cx="171" cy="21" r="21" fill="white"/>
<path d="M171 17.6714C169.157 17.6714 167.671 19.1714 167.671 21C167.671 22.8286 169.171 24.3286 171 24.3286C172.829 24.3286 174.329 22.8286 174.329 21C174.329 19.1714 172.829 17.6714 171 17.6714ZM181 21C181 19.6143 181 18.2571 180.929 16.8714C180.857 15.2714 180.486 13.8429 179.314 12.6857C178.143 11.5143 176.729 11.1429 175.129 11.0714C173.743 11 172.386 11 171 11C169.614 11 168.257 11 166.871 11.0714C165.271 11.1429 163.843 11.5143 162.686 12.6857C161.514 13.8571 161.143 15.2714 161.071 16.8714C161 18.2571 161 19.6143 161 21C161 22.3857 161 23.7429 161.071 25.1286C161.143 26.7286 161.514 28.1571 162.686 29.3143C163.857 30.4857 165.271 30.8571 166.871 30.9286C168.257 31 169.614 31 171 31C172.386 31 173.743 31 175.129 30.9286C176.729 30.8571 178.157 30.4857 179.314 29.3143C180.486 28.1429 180.857 26.7286 180.929 25.1286C181.014 23.7571 181 22.3857 181 21ZM171 26.1286C168.157 26.1286 165.871 23.8429 165.871 21C165.871 18.1571 168.157 15.8714 171 15.8714C173.843 15.8714 176.129 18.1571 176.129 21C176.129 23.8429 173.843 26.1286 171 26.1286ZM176.343 16.8571C175.686 16.8571 175.143 16.3286 175.143 15.6571C175.143 14.9857 175.671 14.4571 176.343 14.4571C177.014 14.4571 177.543 14.9857 177.543 15.6571C177.546 15.8136 177.518 15.9692 177.459 16.1142C177.4 16.2592 177.312 16.3905 177.2 16.5C177.09 16.6118 176.959 16.7 176.814 16.7589C176.669 16.8179 176.514 16.8465 176.357 16.8429L176.343 16.8571Z" fill="#221F1F"/>
</svg>
