<svg width="148" height="10" viewBox="0 0 148 10" fill="none" xmlns="http://www.w3.org/2000/svg">
<path d="M1.7849 9.66104H0.320923V0.910355H2.61672L5.27852 6.40033L7.94033 0.910355H10.2361V9.66104H8.77214V2.80689L5.71106 8.89577H4.87925L1.81819 2.80689V9.66104H1.7849Z" fill="white"/>
<path d="M15.3933 7.66468L14.5282 9.66104H12.9644L16.824 0.910355H18.3878L22.2474 9.66104H20.6504L19.7853 7.66468H15.3933ZM19.1531 6.30051L17.556 2.6738L15.9589 6.30051H19.1531Z" fill="white"/>
<path d="M27.6043 2.07463C27.1718 2.07463 26.8058 2.17445 26.5396 2.34081C26.2734 2.50718 26.1403 2.77335 26.1403 3.13935C26.1403 3.50535 26.2734 3.77153 26.5396 3.9379C26.8058 4.13753 27.4047 4.33716 28.303 4.5368C29.2014 4.76971 29.8668 5.06916 30.3326 5.46843C30.7985 5.8677 31.0314 6.43333 31.0314 7.1986C31.0314 7.96387 30.7319 8.59605 30.1663 9.06187C29.6007 9.52768 28.8354 9.76059 27.9038 9.76059C26.5396 9.76059 25.3085 9.29478 24.2438 8.32987L25.1754 7.1986C26.0738 7.96387 26.9721 8.36314 27.937 8.36314C28.4029 8.36314 28.8021 8.26333 29.0683 8.06369C29.3345 7.86406 29.5008 7.59788 29.5008 7.23188C29.5008 6.89915 29.3678 6.63297 29.1016 6.43334C28.8354 6.2337 28.3696 6.06734 27.7374 5.93425C27.1052 5.76789 26.6061 5.6348 26.2734 5.50171C25.9407 5.36862 25.6412 5.20225 25.375 5.00262C24.8427 4.60335 24.6098 4.00444 24.6098 3.2059C24.6098 2.40736 24.9092 1.77518 25.5081 1.34264C26.107 0.910093 26.839 0.677185 27.7041 0.677185C28.2698 0.677185 28.8354 0.777004 29.3678 0.943367C29.9334 1.143 30.3992 1.37591 30.7985 1.70863L29.9999 2.8399C29.7337 2.60699 29.401 2.40736 28.9352 2.27427C28.4694 2.14118 28.0369 2.07463 27.6043 2.07463Z" fill="white"/>
<path d="M37.6525 2.27453V9.69431H36.1885V2.27453H33.5267V0.910355H40.3143V2.27453H37.6525Z" fill="white"/>
<path d="M49.5975 0.910355V2.3078H44.9061V4.63688H49.0984V5.96778H44.9061V8.29686H49.7306V9.69431H43.4088V0.943629H49.5975V0.910355Z" fill="white"/>
<path d="M60.1448 3.73852C60.1448 5.16924 59.5127 6.10087 58.2483 6.46687L60.5441 9.66104H58.6476L56.5514 6.69978H54.6216V9.66104H53.1576V0.910355H56.4183C57.7492 0.910355 58.7141 1.14326 59.2798 1.57581C59.8454 2.04162 60.1448 2.74035 60.1448 3.73852ZM58.1818 5.00288C58.4812 4.7367 58.6476 4.33743 58.6476 3.73852C58.6476 3.17289 58.4812 2.77362 58.1818 2.57398C57.8823 2.37435 57.3167 2.24126 56.5182 2.24126H54.6216V5.36888H56.4516C57.2834 5.36888 57.8823 5.23579 58.1818 5.00288Z" fill="white"/>
<path d="M66.4334 2.07463C66.0009 2.07463 65.6349 2.17445 65.3687 2.34081C65.1025 2.50718 64.9694 2.77335 64.9694 3.13935C64.9694 3.50535 65.1025 3.77153 65.3687 3.9379C65.6349 4.10426 66.2338 4.33716 67.1321 4.5368C68.0305 4.76971 68.696 5.06916 69.1618 5.46843C69.6276 5.8677 69.8605 6.43333 69.8605 7.1986C69.8605 7.96387 69.561 8.59605 68.9954 9.06187C68.4298 9.52768 67.6645 9.76059 66.7329 9.76059C65.3687 9.76059 64.1376 9.29478 63.0729 8.32987L64.0045 7.1986C64.9029 7.96387 65.8012 8.36314 66.7661 8.36314C67.2319 8.36314 67.6312 8.26333 67.8974 8.06369C68.1636 7.86406 68.33 7.59788 68.33 7.23188C68.33 6.89915 68.1968 6.63297 67.9307 6.43334C67.6645 6.2337 67.1987 6.06734 66.5665 5.93425C65.9343 5.76789 65.4352 5.6348 65.1025 5.50171C64.7698 5.36862 64.4703 5.20225 64.2042 5.00262C63.6718 4.60335 63.4389 4.00444 63.4389 3.2059C63.4389 2.40736 63.7383 1.77518 64.3372 1.34264C64.9362 0.910093 65.6681 0.677185 66.5332 0.677185C67.0989 0.677185 67.6645 0.777004 68.1969 0.943367C68.7625 1.143 69.2283 1.37591 69.6276 1.70863L68.829 2.8399C68.5629 2.60699 68.2301 2.40736 67.7643 2.27427C67.2985 2.14118 66.8659 2.07463 66.4334 2.07463Z" fill="white"/>
<path d="M79.4253 7.26496L78.5935 9.1615H77.0962L80.7562 0.876633H82.2534L85.9134 9.1615H84.4162L83.5843 7.26496H79.4253ZM83.0187 5.96734L81.5215 2.57354L80.0242 5.96734H83.0187Z" fill="white"/>
<path d="M92.2351 7.86409C92.7009 7.86409 93.1335 7.79754 93.4662 7.63118C93.7989 7.46481 94.1649 7.19863 94.5642 6.86591L95.4625 7.79754C94.5975 8.76244 93.5327 9.26153 92.2684 9.26153C91.004 9.26153 89.9726 8.86226 89.1408 8.06372C88.3089 7.26518 87.9097 6.23373 87.9097 5.00265C87.9097 3.77156 88.3422 2.74011 89.174 1.9083C90.0059 1.07649 91.0706 0.677216 92.3682 0.677216C93.6658 0.677216 94.7306 1.14303 95.5956 2.10793L94.6973 3.07284C94.298 2.70684 93.932 2.44066 93.566 2.27429C93.2 2.10793 92.8007 2.04139 92.3349 2.04139C91.5031 2.04139 90.8044 2.30757 90.2387 2.83993C89.6731 3.37229 89.3737 4.07102 89.3737 4.90283C89.3737 5.73464 89.6398 6.43337 90.2055 6.999C90.8044 7.59791 91.4698 7.86409 92.2351 7.86409Z" fill="white"/>
<path d="M99.7549 7.26496L98.923 9.1615H97.4258L101.086 0.876633H102.583L106.243 9.1615H104.746L103.914 7.26496H99.7549ZM103.348 5.96734L101.851 2.57354L100.354 5.96734H103.348Z" fill="white"/>
<path d="M115.06 1.94135C115.859 2.67335 116.258 3.67153 116.258 4.96916C116.258 6.26679 115.859 7.26497 115.094 8.03024C114.328 8.79551 113.13 9.1615 111.533 9.1615H108.772V0.876633H111.6C113.13 0.876633 114.262 1.24263 115.06 1.94135ZM114.861 5.00243C114.861 3.1059 113.763 2.17427 111.6 2.17427H110.202V7.8306H111.766C112.764 7.8306 113.53 7.59769 114.062 7.0986C114.594 6.63278 114.861 5.93406 114.861 5.00243Z" fill="white"/>
<path d="M125.275 0.876852V2.17448H120.849V4.37047H124.809V5.60155H120.849V7.83082H125.408V9.12845H119.452V0.843582H125.275V0.876852Z" fill="white"/>
<path d="M130.033 9.12845H128.635V0.843582H130.798L133.293 6.0341L135.789 0.843582H137.952V9.12845H136.554V2.67357L133.659 8.42972H132.894L130.033 2.67357V9.12845Z" fill="white"/>
<path d="M144.939 9.12845H143.508V5.86774L140.414 0.843582H141.944L144.207 4.60338L146.47 0.843582H148L144.906 5.86774V9.12845H144.939Z" fill="white"/>
</svg>
