<svg width="148" height="10" viewBox="0 0 148 10" fill="none" xmlns="http://www.w3.org/2000/svg">
<path d="M1.7849 9.66108H0.320923V0.9104H2.61672L5.27852 6.40037L7.94033 0.9104H10.2361V9.66108H8.77214V2.80694L5.71106 8.89581H4.87925L1.81819 2.80694V9.66108H1.7849Z" fill="white"/>
<path d="M15.3933 7.66473L14.5282 9.66108H12.9644L16.824 0.9104H18.3878L22.2474 9.66108H20.6504L19.7853 7.66473H15.3933ZM19.1531 6.30055L17.556 2.67385L15.9589 6.30055H19.1531Z" fill="white"/>
<path d="M27.6044 2.07469C27.1718 2.07469 26.8058 2.17451 26.5396 2.34087C26.2735 2.50724 26.1404 2.77342 26.1404 3.13941C26.1404 3.50541 26.2735 3.7716 26.5396 3.93796C26.8058 4.13759 27.4047 4.33722 28.3031 4.53686C29.2015 4.76977 29.8669 5.06922 30.3327 5.46849C30.7985 5.86776 31.0314 6.4334 31.0314 7.19866C31.0314 7.96393 30.732 8.59611 30.1663 9.06193C29.6007 9.52775 28.8354 9.76066 27.9038 9.76066C26.5396 9.76066 25.3086 9.29484 24.2438 8.32993L25.1755 7.19866C26.0738 7.96393 26.9722 8.3632 27.9371 8.3632C28.4029 8.3632 28.8022 8.26339 29.0684 8.06375C29.3345 7.86412 29.5009 7.59794 29.5009 7.23194C29.5009 6.89921 29.3678 6.63304 29.1016 6.4334C28.8355 6.23376 28.3696 6.0674 27.7375 5.93431C27.1053 5.76795 26.6062 5.63486 26.2735 5.50177C25.9407 5.36868 25.6413 5.20231 25.3751 5.00268C24.8427 4.60341 24.6098 4.0045 24.6098 3.20596C24.6098 2.40742 24.9093 1.77524 25.5082 1.3427C26.1071 0.910154 26.8391 0.677246 27.7042 0.677246C28.2698 0.677246 28.8355 0.777065 29.3678 0.943428C29.9335 1.14306 30.3993 1.37597 30.7985 1.70869L30 2.83996C29.7338 2.60705 29.4011 2.40742 28.9353 2.27433C28.4695 2.14124 28.0369 2.07469 27.6044 2.07469Z" fill="white"/>
<path d="M37.6525 2.27458V9.69435H36.1886V2.27458H33.5268V0.9104H40.3144V2.27458H37.6525Z" fill="white"/>
<path d="M49.5975 0.9104V2.30785H44.906V4.63693H49.0984V5.96783H44.906V8.29691H49.7306V9.69435H43.4088V0.943675H49.5975V0.9104Z" fill="white"/>
<path d="M60.1448 3.73857C60.1448 5.16929 59.5126 6.10092 58.2483 6.46692L60.5441 9.66108H58.6475L56.5514 6.69982H54.6216V9.66108H53.1576V0.9104H56.4183C57.7492 0.9104 58.7141 1.14331 59.2797 1.57585C59.8454 2.04167 60.1448 2.74039 60.1448 3.73857ZM58.1818 5.00293C58.4812 4.73675 58.6475 4.33747 58.6475 3.73857C58.6475 3.17293 58.4812 2.77366 58.1818 2.57403C57.8823 2.37439 57.3167 2.2413 56.5181 2.2413H54.6216V5.36892H56.4516C57.2834 5.36892 57.8823 5.23583 58.1818 5.00293Z" fill="white"/>
<path d="M66.4334 2.07469C66.0008 2.07469 65.6348 2.17451 65.3687 2.34087C65.1025 2.50724 64.9694 2.77342 64.9694 3.13941C64.9694 3.50541 65.1025 3.7716 65.3687 3.93796C65.6348 4.10432 66.2337 4.33722 67.1321 4.53686C68.0304 4.76977 68.6959 5.06922 69.1617 5.46849C69.6276 5.86776 69.8605 6.4334 69.8605 7.19866C69.8605 7.96393 69.561 8.59611 68.9954 9.06193C68.4297 9.52775 67.6645 9.76066 66.7328 9.76066C65.3687 9.76066 64.1376 9.29484 63.0728 8.32993L64.0045 7.19866C64.9029 7.96393 65.8012 8.3632 66.7661 8.3632C67.2319 8.3632 67.6312 8.26339 67.8974 8.06375C68.1635 7.86412 68.3299 7.59794 68.3299 7.23194C68.3299 6.89921 68.1968 6.63304 67.9306 6.4334C67.6645 6.23376 67.1986 6.0674 66.5665 5.93431C65.9343 5.76795 65.4352 5.63486 65.1025 5.50177C64.7697 5.36868 64.4703 5.20231 64.2041 5.00268C63.6718 4.60341 63.4388 4.0045 63.4388 3.20596C63.4388 2.40742 63.7383 1.77524 64.3372 1.3427C64.9361 0.910154 65.6681 0.677246 66.5332 0.677246C67.0988 0.677246 67.6645 0.777065 68.1968 0.943428C68.7625 1.14306 69.2283 1.37597 69.6275 1.70869L68.829 2.83996C68.5628 2.60705 68.2301 2.40742 67.7643 2.27433C67.2985 2.14124 66.8659 2.07469 66.4334 2.07469Z" fill="white"/>
<path d="M79.4252 7.26504L78.5934 9.16158H77.0961L80.7561 0.876709H82.2534L85.9134 9.16158H84.4161L83.5843 7.26504H79.4252ZM83.0187 5.96741L81.5214 2.57361L80.0241 5.96741H83.0187Z" fill="white"/>
<path d="M92.2351 7.86412C92.7009 7.86412 93.1335 7.79757 93.4662 7.63121C93.7989 7.46485 94.1649 7.19866 94.5642 6.86594L95.4625 7.79757C94.5975 8.76248 93.5327 9.26156 92.2684 9.26156C91.004 9.26156 89.9726 8.86229 89.1408 8.06375C88.3089 7.26521 87.9097 6.23376 87.9097 5.00268C87.9097 3.77159 88.3422 2.74014 89.174 1.90833C90.0059 1.07652 91.0706 0.677246 92.3682 0.677246C93.6658 0.677246 94.7306 1.14306 95.5956 2.10796L94.6973 3.07287C94.298 2.70687 93.932 2.44069 93.566 2.27432C93.2 2.10796 92.8007 2.04142 92.3349 2.04142C91.5031 2.04142 90.8044 2.3076 90.2387 2.83996C89.6731 3.37232 89.3737 4.07105 89.3737 4.90286C89.3737 5.73467 89.6398 6.4334 90.2055 6.99903C90.8044 7.59794 91.4698 7.86412 92.2351 7.86412Z" fill="white"/>
<path d="M99.7548 7.26504L98.923 9.16158H97.4257L101.086 0.876709H102.583L106.243 9.16158H104.746L103.914 7.26504H99.7548ZM103.348 5.96741L101.851 2.57361L100.354 5.96741H103.348Z" fill="white"/>
<path d="M115.06 1.94143C115.859 2.67343 116.258 3.6716 116.258 4.96923C116.258 6.26686 115.859 7.26505 115.094 8.03031C114.328 8.79558 113.13 9.16158 111.533 9.16158H108.772V0.876709H111.6C113.13 0.876709 114.262 1.24271 115.06 1.94143ZM114.861 5.00251C114.861 3.10597 113.763 2.17434 111.6 2.17434H110.202V7.83068H111.766C112.764 7.83068 113.53 7.59776 114.062 7.09868C114.594 6.63286 114.861 5.93414 114.861 5.00251Z" fill="white"/>
<path d="M125.275 0.876897V2.17453H120.849V4.37052H124.809V5.6016H120.849V7.83087H125.408V9.12849H119.452V0.843628H125.275V0.876897Z" fill="white"/>
<path d="M130.033 9.12849H128.635V0.843628H130.798L133.293 6.03414L135.789 0.843628H137.952V9.12849H136.554V2.67362L133.659 8.42977H132.894L130.033 2.67362V9.12849Z" fill="white"/>
<path d="M144.939 9.12849H143.508V5.86778L140.414 0.843628H141.944L144.207 4.60342L146.47 0.843628H148L144.906 5.86778V9.12849H144.939Z" fill="white"/>
</svg>
