<svg width="532" height="356" viewBox="0 0 532 356" fill="none" xmlns="http://www.w3.org/2000/svg">
<g clip-path="url(#clip0_47_500)">
<path d="M535.456 0.348877H-0.114014V356.349H535.456V0.348877Z" fill="#201615"/>
<mask id="mask0_47_500" style="mask-type:luminance" maskUnits="userSpaceOnUse" x="-1" y="0" width="537" height="357">
<path d="M535.456 0.348877H-0.114014V356.349H535.456V0.348877Z" fill="white"/>
</mask>
<g mask="url(#mask0_47_500)">
<path d="M348.207 9.79009C348.207 9.79009 252.375 8.18809 212.636 8.69361C172.896 9.20625 92.1467 15.0731 92.1467 15.0731C92.1467 15.0731 179.63 14.1618 212.222 13.1721C244.813 12.1895 348.199 9.78297 348.199 9.78297L348.207 9.79009Z" fill="#FDB714"/>
<path d="M348.207 13.0297C348.207 13.0297 258.745 11.2853 221.655 11.741C184.565 12.1966 109.192 17.9496 109.192 17.9496C109.192 17.9496 190.856 17.1593 221.276 16.2194C251.697 15.2796 348.207 13.0226 348.207 13.0226V13.0297Z" fill="#FDB714"/>
<path d="M523.402 160.435C519.575 181.154 512.777 201.211 513.719 222.4C514.655 243.355 519.439 264.593 518.432 285.59C517.375 307.584 502.694 311.657 484.27 313.536C474.558 314.526 464.54 312.475 454.828 313.536C443.417 314.797 435.812 321.853 425.386 325.683C380.255 342.251 319.786 328.239 274.312 319.909C242.285 314.049 211.779 307.534 179.352 308.673C122.053 310.681 66.3822 318.392 8.74771 312.618C-13.3606 310.404 -33.7837 304.601 -46.9016 284.707C-64.0399 258.712 -57.6487 230.14 -50.5578 201.831C-39.5822 157.993 -21.994 121.332 11.9254 91.4066C42.6957 64.2581 83.3705 36.8746 122.639 25.7887C211.415 0.740562 302.269 22.0151 393.516 22.065C413.253 22.0792 439.818 9.57648 459.591 9.74024C469.517 9.82568 489.283 16.134 504.379 29.9041C528.972 52.3392 536.763 88.0602 523.395 160.421L523.402 160.435Z" fill="#FDB714"/>
<path d="M-10.5043 113.885C50.8221 95.102 114.434 84.2938 181.58 72.7737C213.657 67.2699 280.061 61.9441 279.568 62.1649L279.146 59.9933C243.613 56.5472 114.326 72.9303 78.5718 77.7292C44.4524 82.3145 11.1613 88.4733 -21.9369 95.2515C-7.06948 87.5405 16.3457 82.6064 29.5564 79.9506C65.0469 72.8021 100.68 66.6718 137.156 63.4678C173.139 60.3065 303.183 50.4311 338.552 60.2638L338.873 63.7384C339.373 63.4536 272.727 63.6529 240.393 68.3735C172.711 78.2561 108.592 87.4551 46.3876 109.52C28.3282 115.928 13.2751 123.86 -1.60666 125.234C-12.1253 126.202 -20.1445 122.934 -25.6573 118.812C-20.8229 117.188 -15.8029 115.508 -10.5043 113.885Z" fill="#F89B6C"/>
<path d="M474.723 238.805C455.649 218.079 444.017 188.986 433.277 174.525C412.482 146.53 375.913 152.219 348.578 134.938C340.523 129.847 334.11 124.572 325.713 119.879C301.233 106.216 250.533 93.2507 215.656 95.0521C191.592 96.2981 83.3349 97.9001 4.42749 156.576C-2.13503 161.453 -11.1469 168.773 -13.9033 176.505C-17.7166 187.22 -18.0236 202.18 -17.1167 213.636C-15.9456 228.346 -9.14029 230.254 4.89879 225.142C30.8918 215.679 62.7118 215.373 90.4187 214.867C143.019 213.913 194.862 217.808 247.284 222.336C287.573 225.818 327.062 233.144 367.351 236.939C403.385 240.336 509.67 295.395 553.109 307.712C553.109 307.712 488.319 253.586 474.715 238.805H474.723Z" fill="#EF4934"/>
<path d="M343.651 39.4947C343.651 39.4947 208.994 34.71 153.309 36.426C97.6238 38.1419 -14.9174 56.8248 -14.9174 56.8248C-14.9174 56.8248 107.707 53.7133 153.302 50.5236C198.904 47.3338 343.651 39.4947 343.651 39.4947Z" fill="#EF4934"/>
<g style="mix-blend-mode:screen">
<path d="M275.447 14.0835C275.447 14.0835 204.245 15.3081 174.66 16.9885C145.075 18.6688 84.6987 26.9066 84.6987 26.9066C84.6987 26.9066 149.824 23.4178 174.118 21.4741C198.411 19.5303 275.447 14.0835 275.447 14.0835Z" fill="#F04934"/>
</g>
<path d="M274.626 47.4264C274.626 47.4264 184.572 46.8212 147.189 47.7396C109.799 48.6652 33.6267 55.3651 33.6267 55.3651C33.6267 55.3651 115.926 53.5424 146.618 52.2252C177.31 50.9009 274.626 47.4264 274.626 47.4264Z" fill="#FFDC99"/>
<path d="M542.233 298.563C542.233 298.563 419.266 237.708 364.188 219.018C227.796 172.745 81.2925 195.366 49.1583 205.647C17.024 215.928 -12.9679 221.752 -12.9679 221.752L-0.535521 356.89L542.24 363.626V298.563H542.233Z" fill="#B34538"/>
<path opacity="0.4" d="M543.454 369.763C543.454 369.763 249.79 162.023 14.4533 204.479C-28.3495 212.205 -32.9697 233.073 -32.9697 233.073L-32.1842 399.51L465.161 397.175L543.461 369.763H543.454Z" fill="#181818"/>
<path opacity="0.4" d="M532.179 391.835C532.179 391.835 238.515 184.095 3.17773 226.551C-39.6251 234.276 -44.2452 255.145 -44.2452 255.145L-43.4597 421.582L453.885 419.247L532.186 391.835H532.179Z" fill="#181818"/>
<path d="M558.336 55.8636L554.765 150.225L441.96 133.529V51.8052L558.336 55.8636Z" fill="#181818"/>
<path d="M441.96 -39.8719V51.8052L334.774 46.7856V-30.3383L441.96 -39.8719Z" fill="#181818"/>
<path d="M431.106 51.2996V-38.9037L420.109 -37.9282V50.7798L431.106 51.2996Z" fill="#B34538"/>
<path d="M412.311 50.4167L409.861 -37.0168L403.028 -36.4116L405.134 50.0821L412.311 50.4167Z" fill="#B34538"/>
<path d="M395.501 49.6335V-35.7424L388.367 -35.1088V49.2988L395.501 49.6335Z" fill="#B34538"/>
<path d="M378.377 48.8289V-34.2188L371.293 -33.5851V48.4943L378.377 48.8289Z" fill="#B34538"/>
<path d="M361.203 48.0245V-32.6879L351.663 -31.8406L353.969 48.0245H361.203Z" fill="#B34538"/>
<path d="M344.586 47.2483V-31.2141L338.709 -30.6872V47.2981L344.586 47.2483Z" fill="#B34538"/>
<path d="M491.647 140.136V53.5354L483.77 53.8558V137.829L491.647 140.136Z" fill="#B34538"/>
<path d="M528.158 146.281V55.0875L522.103 54.6034L521.874 144.33L528.158 146.281Z" fill="#B34538"/>
<path d="M510.863 143.724V55.0875L500.816 53.8557L504.272 141.951L510.863 143.724Z" fill="#B34538"/>
<path d="M472.866 136.768V53.5353L465.682 52.6311L466.932 136.768H472.866Z" fill="#B34538"/>
<path d="M457.841 135.679V52.6311H450.815L452.614 134.974L457.841 135.679Z" fill="#B34538"/>
<path d="M441.96 51.8052L558.336 55.8636V-31.214L441.96 -39.8719V51.8052Z" fill="#B34538"/>
<path d="M441.96 51.143V133.529L334.774 121.894V46.1234L441.96 51.143Z" fill="#B34538"/>
<path d="M557.458 -2.32104H441.489V6.80679L557.458 8.56543V-2.32104Z" fill="#181818"/>
<path d="M557.458 15.0518H441.489V24.1867L557.458 25.9454V15.0518Z" fill="#181818"/>
<path d="M557.458 32.4318H441.489V41.5667L557.458 43.3254V32.4318Z" fill="#181818"/>
<path d="M447.358 59.9291L334.774 53.8557V63.902L446.837 70.8084L447.358 59.9291Z" fill="#181818"/>
<path d="M446.523 77.2877L334.774 70.8085V80.2781L446.002 88.167L446.523 77.2877Z" fill="#181818"/>
<path d="M445.695 94.6462L334.774 89.4984V98.79L445.173 105.526L445.695 94.6462Z" fill="#181818"/>
<path d="M444.859 112.005L334.774 104.543V113.714L444.338 122.884L444.859 112.005Z" fill="#181818"/>
</g>
<mask id="mask1_47_500" style="mask-type:luminance" maskUnits="userSpaceOnUse" x="-1" y="0" width="537" height="357">
<path d="M535.456 0.348877H-0.114014V356.349H535.456V0.348877Z" fill="white"/>
</mask>
<g mask="url(#mask1_47_500)">
<path d="M22.4297 58.3413C22.4297 58.3413 -18.6021 98.4839 -22.0227 101.788C-25.436 105.084 -22.1869 108.623 -22.1869 108.623L27.7783 69.5411L22.4297 58.3413Z" fill="#181818"/>
<path d="M24.7791 74.3613C24.7791 74.3613 -18.952 110.915 -22.5225 114.39C-26.0929 117.864 -22.8581 117.843 -22.8581 117.843L30.7132 83.3894L24.7791 74.3541V74.3613Z" fill="#181818"/>
<path d="M31.5415 9.60486C31.5415 9.60486 5.54853 16.9598 6.05554 28.6153C6.55541 40.2707 37.5685 115.771 46.2305 116.006C56.2135 116.284 61.6049 116.262 61.6049 116.262C61.6049 116.262 47.6944 75.5859 43.9811 58.6901C40.2678 41.7873 31.5415 9.60486 31.5415 9.60486Z" fill="#0E0908"/>
<path d="M31.5415 9.60485C19.302 14.5176 38.5468 54.4751 47.0945 79.1245C51.1648 90.8725 56.999 110.46 58.4558 113.628C59.9125 116.796 61.8548 117.708 65.8895 113.137C69.9312 108.566 79.2644 105.625 79.2644 105.625C79.2644 105.625 63.1473 44.3006 61.6335 30.8865C60.1196 17.4724 54.6425 0.334609 31.5415 9.60485Z" fill="#C43523"/>
<path d="M42.5029 10.2528C40.6391 11.869 39.6608 14.1617 39.2966 16.5682C38.4254 22.3069 39.9678 28.3661 41.8174 33.7701C43.3241 38.1703 45.1308 42.7485 47.78 46.6075C50.4365 50.4808 53.9927 53.6563 56.5848 57.5723C59.1484 61.4313 60.5623 65.6606 61.5906 70.1462C63.6258 79.0391 65.6681 88.2737 73.516 93.984C74.5371 94.7245 75.6297 95.3653 76.758 95.9562C72.1663 78.1277 62.776 40.9685 61.6335 30.8865C60.6337 22.0293 57.9059 11.5486 49.5153 8.1239C47.0231 8.13102 44.4167 8.60094 42.4957 10.2599L42.5029 10.2528Z" fill="#F55743"/>
<path d="M58.5414 25.6177C60.9979 34.2542 57.2418 42.8766 50.1508 44.8773C43.067 46.878 35.3334 41.5024 32.8769 32.8659C30.4204 24.2293 34.1766 15.607 41.2675 13.6062C48.3513 11.6055 56.085 16.9811 58.5414 25.6177Z" fill="#0E0908"/>
<path d="M56.5705 26.1731C58.6486 33.4853 55.4708 40.7833 49.4725 42.4779C43.4741 44.1725 36.9258 39.6157 34.8549 32.3105C32.7769 25.0054 35.9547 17.7003 41.953 16.0057C47.9514 14.3112 54.4925 18.868 56.5705 26.1731Z" fill="#F55743"/>
<g style="mix-blend-mode:screen">
<path d="M42.8814 19.288C38.3754 20.5625 35.9832 26.0449 37.5471 31.5415C39.1109 37.0382 44.0311 40.4558 48.537 39.1884C53.0429 37.9139 55.4351 32.4315 53.8713 26.9349C52.3074 21.4383 47.3873 18.0207 42.8814 19.2951V19.288ZM47.9728 37.2019C44.3667 38.2201 40.4249 35.4789 39.1752 31.0787C37.9255 26.6786 39.8393 22.2855 43.4455 21.2674C47.0588 20.2492 50.9935 22.9904 52.2431 27.3906C53.4928 31.7907 51.579 36.1838 47.9657 37.2019H47.9728Z" fill="#F04934"/>
</g>
<path d="M65.9751 59.6157C67.9389 66.5292 64.9326 73.4356 59.2555 75.0376C53.5785 76.6396 47.3873 72.332 45.4235 65.4185C43.4598 58.505 46.4661 51.5986 52.1431 49.9966C57.8202 48.3946 64.0114 52.7021 65.9751 59.6157Z" fill="#0E0908"/>
<path d="M64.3969 60.0643C66.0608 65.9169 63.5115 71.7624 58.7128 73.1224C53.9069 74.4823 48.6655 70.8297 47.0016 64.9771C45.3378 59.1244 47.8871 53.2789 52.6858 51.9261C57.4917 50.5733 62.7331 54.2188 64.3898 60.0714L64.3969 60.0643Z" fill="#F55743"/>
<path d="M53.4357 54.5533C49.8224 55.5715 47.9086 59.9645 49.1654 64.3647C50.4151 68.7648 54.3568 71.506 57.963 70.4879C61.5763 69.4697 63.4901 65.0767 62.2404 60.6765C60.9908 56.2763 57.049 53.5351 53.4428 54.5533H53.4357ZM57.5131 68.9001C54.6211 69.7189 51.4648 67.5188 50.465 64.0015C49.4653 60.4771 50.9935 56.9599 53.8856 56.1411C56.7776 55.3223 59.9339 57.5223 60.9337 61.0396C61.9334 64.564 60.4052 68.0813 57.5131 68.9001Z" fill="#EF4934"/>
<path d="M54.3068 57.6221C52.1074 58.2415 50.9434 60.94 51.7146 63.6456C52.4858 66.3512 54.8923 68.0386 57.0917 67.4192C59.2912 66.7998 60.4551 64.1013 59.6839 61.3957C58.9127 58.6901 56.5062 57.0026 54.3068 57.6221ZM56.8132 66.4366C55.0494 66.935 53.1214 65.5822 52.5073 63.4178C51.8931 61.2533 52.8215 59.0959 54.5853 58.5975C56.3491 58.0991 58.2771 59.4519 58.8913 61.6164C59.5054 63.7809 58.5771 65.9382 56.8132 66.4366Z" stroke="#0E0908" stroke-width="0.5" stroke-miterlimit="10"/>
<path d="M70.7095 88.9145C71.8378 92.7593 70.1597 96.6326 66.9534 97.5653C63.7471 98.5051 60.2338 96.1484 59.1055 92.3036C57.9773 88.4588 59.6554 84.5855 62.8617 83.6528C66.0679 82.713 69.5813 85.0697 70.7095 88.9145Z" stroke="#0E0908" stroke-width="0.5" stroke-miterlimit="10"/>
<path d="M55.8779 97.2876C55.8779 97.2876 57.8917 104.244 59.5912 108.466C61.1765 109.42 62.3952 109.985 63.2474 110.161C64.4899 110.417 67.6176 108.445 67.6176 108.445C67.6176 108.445 73.1376 106.045 75.1656 104.472" stroke="#0E0908" stroke-width="0.5" stroke-miterlimit="10"/>
<path d="M72.4735 88.4019C73.9445 93.4072 71.7522 98.4624 67.5748 99.68C63.3973 100.897 58.82 97.8288 57.3418 92.8234C55.8708 87.818 58.063 82.7628 62.2405 81.5453C66.4179 80.3207 70.9953 83.3965 72.4735 88.4019Z" stroke="#0E0908" stroke-width="0.5" stroke-miterlimit="10"/>
<path d="M30.4633 269.079L95.7529 316.156V397.282L30.9774 380.179L30.4633 269.079Z" fill="#C43523"/>
<path d="M74.1157 345.576L52.3144 332.988L44.3523 335.829L44.1523 335.274L52.3716 332.34L52.4858 332.404L74.4156 345.064L74.1157 345.576Z" fill="#F04934"/>
<path d="M75.094 349.912L53.2856 337.324L45.3306 340.165L45.1306 339.61L53.3427 336.676L53.4641 336.747L75.3868 349.407L75.094 349.912Z" fill="#F04934"/>
<path d="M73.1946 341.81L51.3933 329.215L43.4312 332.063L43.2312 331.507L51.4504 328.574L51.5647 328.638L73.4945 341.297L73.1946 341.81Z" fill="#F04934"/>
<g style="mix-blend-mode:screen">
<path d="M44.8379 338.435C44.0381 338.649 43.5525 339.475 43.7667 340.279C43.981 341.084 44.8165 341.561 45.6162 341.347C46.4232 341.133 46.9016 340.308 46.6874 339.503C46.4732 338.698 45.6448 338.221 44.8379 338.435Z" fill="#F04934"/>
</g>
<g style="mix-blend-mode:screen">
<path d="M43.8667 334.092C43.0669 334.305 42.5813 335.131 42.7955 335.936C43.0098 336.74 43.8453 337.217 44.645 337.004C45.452 336.79 45.9304 335.964 45.7162 335.16C45.502 334.355 44.6736 333.878 43.8667 334.092Z" fill="#F04934"/>
</g>
<g style="mix-blend-mode:screen">
<path d="M42.9455 330.325C42.1386 330.539 41.6601 331.365 41.8744 332.169C42.0886 332.974 42.9169 333.451 43.7239 333.237C44.5308 333.024 45.0092 332.198 44.795 331.393C44.5808 330.589 43.7524 330.112 42.9455 330.325Z" fill="#F04934"/>
</g>
<path d="M79.8356 335.722L57.7987 322.992L56.2562 314.433L56.8346 314.327L58.3271 322.621L80.1355 335.21L79.8356 335.722Z" fill="#F04934"/>
<path d="M84.0987 334.405L62.0546 321.682L60.5122 313.116L61.0978 313.009L62.5902 321.304L84.3915 333.892L84.0987 334.405Z" fill="#F04934"/>
<path d="M76.101 336.797L54.0641 324.074L52.5216 315.516L53.1 315.409L54.5925 323.704L76.4009 336.292L76.101 336.797Z" fill="#F04934"/>
<g style="mix-blend-mode:screen">
<path d="M59.3482 313.451C59.134 312.653 59.6125 311.82 60.4194 311.607C61.2263 311.393 62.0547 311.87 62.2689 312.675C62.4831 313.479 62.0047 314.305 61.1977 314.519C60.3908 314.732 59.5625 314.255 59.3482 313.451Z" fill="#F04934"/>
</g>
<g style="mix-blend-mode:screen">
<path d="M55.0852 314.768C54.871 313.971 55.3494 313.138 56.1563 312.924C56.9633 312.71 57.7916 313.187 58.0058 313.992C58.2201 314.797 57.7416 315.623 56.9347 315.836C56.1278 316.05 55.2994 315.573 55.0852 314.768Z" fill="#F04934"/>
</g>
<g style="mix-blend-mode:screen">
<path d="M51.3504 315.85C51.1362 315.053 51.6147 314.22 52.4216 314.006C53.2285 313.793 54.0569 314.27 54.2711 315.074C54.4853 315.879 54.0069 316.705 53.1999 316.918C52.393 317.132 51.5647 316.655 51.3504 315.85Z" fill="#F04934"/>
</g>
<path d="M45.8879 322.028L45.5909 322.54L72.1397 337.866L72.4366 337.354L45.8879 322.028Z" fill="#F04934"/>
<g style="mix-blend-mode:screen">
<path d="M45.352 320.827C44.5451 321.041 44.0666 321.867 44.2809 322.671C44.4951 323.476 45.3235 323.953 46.1304 323.739C46.9373 323.526 47.4157 322.7 47.2015 321.895C46.9873 321.091 46.1589 320.614 45.352 320.827Z" fill="#F04934"/>
</g>
<path d="M34.3265 310.19C34.3265 310.19 54.9424 293.949 57.3203 292.134L35.8046 277.018C35.8046 277.018 34.9049 277.495 34.3836 280.265C33.8623 283.034 34.3265 310.19 34.3265 310.19Z" fill="#EF4934"/>
<path d="M67.8175 298.947L91.5897 316.811C91.5897 316.811 93.1964 318.093 93.1964 323.227C93.1964 326.48 92.7037 328.282 91.5897 327.506C90.4828 326.73 68.8029 315.331 67.8175 313.045C66.832 310.759 67.8175 298.947 67.8175 298.947Z" fill="#EF4934"/>
<path d="M28.1281 373.359C28.1281 373.359 38.3968 347 42.2815 345.021C47.7728 342.223 56.4205 348.695 61.6334 351.692C66.8534 354.683 83.5632 369.727 83.5632 369.727L28.121 373.366L28.1281 373.359Z" fill="#F55743"/>
<path d="M89.226 319.09V363.006" stroke="#181818" stroke-width="0.5" stroke-miterlimit="10"/>
<path d="M36.3402 287.968V376.705" stroke="#181818" stroke-width="0.5" stroke-miterlimit="10"/>
<path d="M157.143 288.823L214.749 256.106V363.711L157.143 361.974V288.823Z" fill="#181818"/>
<path d="M173.318 283.661C174.367 288.424 175.003 293.28 175.146 298.157C175.296 303.205 174.81 308.211 174.696 313.244C174.589 318.093 174.753 323.163 176.481 327.755C178.074 331.977 181.244 336.833 185.914 338.058C190.313 339.211 194.733 337.182 198.311 334.74C202.467 331.899 205.616 327.919 209.651 324.95C211.25 323.775 212.979 322.721 214.75 321.703V256.099L172.439 280.129C172.761 281.297 173.054 282.472 173.318 283.654V283.661Z" fill="#C43523"/>
<path d="M96.524 315.345L154.13 282.628V358.478L96.524 373.622V315.345Z" fill="#181818"/>
<path d="M102.115 334.263L154.13 308.154" stroke="#181624" stroke-miterlimit="10"/>
<path d="M102.115 357.524L154.13 331.422" stroke="#181624" stroke-miterlimit="10"/>
<path d="M192.927 319.567C183.879 324.786 175.546 321.667 175.546 321.667L200.303 309.535C200.303 309.535 198.318 316.455 192.927 319.567Z" fill="#181818"/>
<path d="M189.121 296.954C180.073 302.173 171.74 299.054 171.74 299.054L196.497 286.922C196.497 286.922 194.512 293.842 189.121 296.954Z" fill="#181818"/>
<path d="M197.454 343.44C188.406 348.659 180.073 345.541 180.073 345.541L204.831 333.408C204.831 333.408 202.845 340.329 197.454 343.44Z" fill="#181818"/>
<path d="M159.943 304.693L211.95 278.584" stroke="#181624" stroke-miterlimit="10"/>
<path d="M162.735 327.726L214.749 301.617" stroke="#181624" stroke-miterlimit="10"/>
<path d="M162.735 354.256L214.749 328.146" stroke="#181624" stroke-miterlimit="10"/>
<path d="M22.8153 221.282V361.062H8.53345V222.35L22.8153 221.282Z" fill="#0E0908"/>
<path d="M346.336 151.378V255.893H332.054V152.176L346.336 151.378Z" fill="#0E0908"/>
<g style="mix-blend-mode:multiply" opacity="0.2">
<path d="M337.531 197.01C340.437 194.027 343.886 191.727 346.071 188.089C346.164 187.932 346.243 187.776 346.328 187.612V151.371L332.047 152.169V207.064C333.075 203.361 334.696 199.894 337.524 196.996L337.531 197.01Z" fill="#0E0908"/>
</g>
<path d="M116.397 268.516V373.031H102.115V269.314L116.397 268.516Z" fill="#0E0908"/>
<g style="mix-blend-mode:multiply" opacity="0.2">
<path d="M108.542 336.854C111.499 333.75 113.898 330.154 115.583 326.21C115.869 325.541 116.14 324.857 116.39 324.181V268.509L102.108 269.307V346.132C103.651 342.486 105.829 339.695 108.535 336.847L108.542 336.854Z" fill="#0E0908"/>
</g>
<path d="M377.02 152.347L105.707 299.98L-5.1272 220.3L264.136 123.212L377.02 152.347Z" fill="#C43523"/>
<path d="M105.707 318.264V299.98L-5.1272 220.3V231.955L105.707 318.264Z" fill="#0E0908"/>
<path d="M105.707 318.264L377.02 162.585V152.347L105.707 299.98V318.264Z" fill="#0E0908"/>
<path d="M105.707 304.665L-5.1272 226.074V220.3L105.707 299.98V304.665Z" fill="#EF4934"/>
<path d="M105.707 305.633L-5.1272 225.59V223.461L105.707 303.148V305.633Z" fill="#FFE194"/>
<g style="mix-blend-mode:multiply" opacity="0.2">
<path d="M143.569 270.468C133.207 271.813 122.589 273.992 112.106 272.661C104.079 271.642 95.6386 268.46 89.7973 262.678C80.7069 253.672 81.6495 240.706 87.1123 230.012C90.1472 224.074 94.2747 218.67 99.0948 214.056C105.122 208.289 112.32 204.081 119.546 199.987C156.287 179.161 207.023 161.432 248.74 155.572C262.594 153.628 311.895 157.089 327.655 140.1L264.129 123.219L-5.1272 220.3L105.714 299.98L161.264 269.756C155.344 269.435 149.388 269.713 143.576 270.468H143.569Z" fill="#C43523"/>
</g>
<path d="M112.277 223.126V225.376L165.349 260.449L313.966 178.705V176.868L261.823 158.89L112.277 223.126Z" fill="#F04934"/>
<path d="M313.966 176.868L262.637 156.27L112.277 223.126L165.848 255.444L313.966 176.868Z" fill="#2D2D2D"/>
<path d="M121.66 221.624L162.892 249.171L173.025 247.954L190.47 238.142" stroke="#181624" stroke-width="0.5" stroke-miterlimit="10"/>
<path d="M131.786 216.555L131.536 224.266" stroke="#181624" stroke-width="0.5" stroke-miterlimit="10"/>
<path d="M134.521 216.555L134.278 224.266" stroke="#181624" stroke-width="0.5" stroke-miterlimit="10"/>
<path d="M294.249 175.764L294 183.468" stroke="#181624" stroke-width="0.5" stroke-miterlimit="10"/>
<path d="M296.991 175.764L296.742 183.468" stroke="#181624" stroke-width="0.5" stroke-miterlimit="10"/>
<path d="M253.032 163.447L258.959 160.499H265.015L302.762 176.676" stroke="#181624" stroke-width="0.5" stroke-miterlimit="10"/>
<path d="M231.245 134.255C229.71 138.484 226.832 141.973 232.381 144.942C236.308 147.042 241.771 146.124 246.141 146.515C250.911 146.942 252.854 149.1 253.989 153.82C254.982 157.929 255.796 166.117 261.687 165.547" stroke="#FDB714" stroke-miterlimit="10"/>
<path d="M257.003 174.874C255.46 173.059 253.625 167.569 259.623 165.412C265.622 163.261 266.864 163.041 272.72 165.796C279.332 168.908 282.817 172.995 282.639 175.8C282.453 178.605 281.289 181.795 277.69 183.14C272.763 184.977 267.114 183.689 265.243 180.77C263.372 177.857 262.98 176.725 259.995 175.8C257.01 174.874 258.002 176.042 257.01 174.874H257.003Z" fill="#FDB714"/>
<path d="M267.828 172.603C270.72 175.066 274.891 174.062 275.083 171.207C275.262 168.523 265.922 164.28 264.858 164.237C263.951 164.201 264.293 163.767 261.694 164.287C261.301 164.365 259.48 165.127 259.616 165.412C260.687 167.555 267.828 172.603 267.828 172.603Z" fill="#0E0908"/>
<path d="M257.181 175.252C255.474 173.201 255.974 170.467 256.838 169.406C258.345 167.562 261.016 170.581 262.044 171.514C265.729 174.881 268.3 180.834 273.72 181.845C276.397 182.343 279.268 181.66 282.196 178.27C281.018 183.646 274.155 184.728 271.534 184.458C269.649 184.265 267.328 183.518 265.793 182.343C264.172 181.097 263.429 179.132 261.773 178.021C260.659 177.274 258.045 176.284 257.188 175.252H257.181Z" fill="#0E0908"/>
<path d="M260.316 171.734C260.316 172.161 259.973 172.51 259.552 172.51C259.13 172.51 258.788 172.161 258.788 171.734C258.788 171.307 259.13 170.958 259.552 170.958C259.973 170.958 260.316 171.307 260.316 171.734Z" stroke="#181624" stroke-width="0.25" stroke-miterlimit="10"/>
<path d="M258.795 173.379C258.795 173.806 258.452 174.155 258.031 174.155C257.609 174.155 257.267 173.806 257.267 173.379C257.267 172.952 257.609 172.603 258.031 172.603C258.452 172.603 258.795 172.952 258.795 173.379Z" stroke="#181624" stroke-width="0.25" stroke-miterlimit="10"/>
<path d="M260.93 175.38C260.93 175.721 260.623 176.006 260.244 176.006C259.866 176.006 259.559 175.728 259.559 175.38C259.559 175.031 259.866 174.753 260.244 174.753C260.623 174.753 260.93 175.031 260.93 175.38Z" stroke="#181624" stroke-width="0.25" stroke-miterlimit="10"/>
<path d="M261.551 173.379C261.551 173.721 261.273 173.998 260.937 173.998C260.602 173.998 260.323 173.721 260.323 173.379C260.323 173.037 260.602 172.76 260.937 172.76C261.273 172.76 261.551 173.037 261.551 173.379Z" stroke="#181624" stroke-width="0.25" stroke-miterlimit="10"/>
<path d="M264.108 175.202C264.108 175.643 263.786 175.999 263.394 175.999C263.001 175.999 262.68 175.643 262.68 175.202C262.68 174.76 263.001 174.404 263.394 174.404C263.786 174.404 264.108 174.76 264.108 175.202Z" stroke="#181624" stroke-width="0.25" stroke-miterlimit="10"/>
<path d="M264.95 177.302C264.95 177.744 264.629 178.1 264.236 178.1C263.844 178.1 263.522 177.744 263.522 177.302C263.522 176.861 263.844 176.505 264.236 176.505C264.629 176.505 264.95 176.861 264.95 177.302Z" stroke="#181624" stroke-width="0.25" stroke-miterlimit="10"/>
<path d="M265.422 179.445C265.422 179.815 265.157 180.107 264.829 180.107C264.501 180.107 264.236 179.808 264.236 179.445C264.236 179.082 264.501 178.783 264.829 178.783C265.157 178.783 265.422 179.082 265.422 179.445Z" stroke="#181624" stroke-width="0.25" stroke-miterlimit="10"/>
<path d="M267.135 178.776C267.135 179.146 266.871 179.438 266.543 179.438C266.214 179.438 265.95 179.139 265.95 178.776C265.95 178.413 266.214 178.114 266.543 178.114C266.871 178.114 267.135 178.413 267.135 178.776Z" stroke="#181624" stroke-width="0.25" stroke-miterlimit="10"/>
<path d="M262.68 177.117C262.68 177.459 262.458 177.736 262.187 177.736C261.915 177.736 261.694 177.459 261.694 177.117C261.694 176.775 261.915 176.498 262.187 176.498C262.458 176.498 262.68 176.775 262.68 177.117Z" stroke="#181624" stroke-width="0.25" stroke-miterlimit="10"/>
<path d="M262.637 165.981C262.637 165.981 262.851 165.07 264.043 165.07C265.236 165.07 266.571 165.946 267.328 166.587C268.085 167.227 268.385 167.704 267.964 168.146C267.543 168.58 267.493 168.566 266.978 168.637C266.464 168.708 262.637 165.981 262.637 165.981Z" fill="#181818"/>
<path d="M262.658 165.604C262.658 165.604 262.872 164.693 264.065 164.7C265.257 164.7 266.592 165.576 267.357 166.216C268.114 166.857 268.413 167.334 267.992 167.776C267.571 168.21 267.321 168.032 266.635 167.989C266.114 167.954 262.658 165.611 262.658 165.611V165.604Z" fill="#0E0908"/>
<path d="M176.289 230.681L148.103 212.938L147.375 216.434L174.303 235.102L176.289 236.476V230.681Z" fill="#0E0908"/>
<path d="M174.568 233.173L150.096 218.32L176.289 236.476L174.568 233.173Z" fill="#C43523"/>
<path d="M148.103 212.938L176.289 230.681L258.781 187.306L233.595 175.978L148.103 212.938Z" fill="#FDB714"/>
<g style="mix-blend-mode:multiply" opacity="0.2">
<path d="M166.041 213.813C166.813 208.004 173.818 205.291 178.66 203.824C184.851 201.952 191.413 201.517 197.554 199.566C203.182 197.779 208.73 195.7 214.057 193.165C218.963 190.83 223.526 187.776 228.56 185.718C233.709 183.61 238.843 183.169 244.349 183.796C247.42 184.144 250.476 184.664 253.554 184.956L233.602 175.978L148.111 212.945L175.939 230.46C177.281 223.077 165.035 221.475 166.049 213.813H166.041Z" fill="#FDB714"/>
</g>
<path d="M258.781 187.306L176.289 230.681V236.476L260.23 189.62L258.781 187.306Z" fill="#0E0908"/>
<path d="M153.452 212.674L233.459 177.808L234.652 178.32L155.216 213.949L153.452 212.674Z" fill="#EF4934"/>
<path d="M231.724 186.935L227.211 189.1L231.338 191.67L235.787 189.442L231.724 186.935Z" fill="#EF4934"/>
<path d="M226.168 188.452L230.688 186.302L227.71 184.465L223.155 186.579L226.168 188.452Z" fill="#F04934"/>
<path d="M192.905 204.33L196.819 202.464L193.434 200.378L189.492 202.208L192.905 204.33Z" fill="#EF4934"/>
<path d="M236.972 184.408L232.609 186.508L236.644 189.014L240.95 186.864L236.972 184.408Z" fill="#EF4934"/>
<path d="M228.639 184.03L231.588 185.867L235.958 183.781L233.045 181.987L228.639 184.03Z" fill="#EF4934"/>
<path d="M216.242 193.194L220.148 191.328L217.049 189.413L213.107 191.243L216.242 193.194Z" fill="#EF4934"/>
<path d="M197.683 202.051L202.739 199.638L199.425 197.601L194.327 199.965L197.683 202.051Z" fill="#EF4934"/>
<path d="M203.595 199.232L209.744 196.298L206.509 194.305L200.311 197.188L203.595 199.232Z" fill="#F55743"/>
<path d="M210.636 195.871L215.342 193.621L212.179 191.67L207.437 193.877L210.636 195.871Z" fill="#EF4934"/>
<path d="M221.048 190.901L225.268 188.879L222.226 187.007L217.97 188.986L221.048 190.901Z" fill="#EF4934"/>
<path d="M197.947 203.162L194.041 205.034L198.754 207.975L202.617 206.038L197.947 203.162Z" fill="#EF4934"/>
<path d="M193.184 205.447L188.214 207.833L193.034 210.837L197.947 208.381L193.184 205.447Z" fill="#EF4934"/>
<path d="M181.658 216.526L187.2 213.757L182.244 210.702L176.631 213.401L181.658 216.526Z" fill="#EF4934"/>
<path d="M226.318 189.527L222.098 191.556L226.318 194.184L230.488 192.097L226.318 189.527Z" fill="#EF4934"/>
<path d="M187.357 208.246L183.144 210.268L188.057 213.329L192.22 211.243L187.357 208.246Z" fill="#EF4934"/>
<path d="M221.212 191.984L217.306 193.856L221.612 196.533L225.468 194.604L221.212 191.984Z" fill="#EF4934"/>
<path d="M216.421 194.283L211.722 196.54L216.121 199.282L220.762 196.96L216.421 194.283Z" fill="#EF4934"/>
<path d="M203.845 200.321L198.797 202.749L203.431 205.633L208.416 203.141L203.845 200.321Z" fill="#EF4934"/>
<path d="M210.829 196.968L204.695 199.915L209.23 202.735L215.278 199.709L210.829 196.968Z" fill="#EF4934"/>
<path d="M237.394 190.431L232.902 192.646L236.651 194.974L241.057 192.688L237.394 190.431Z" fill="#EF4934"/>
<path d="M246.163 186.102L243.428 187.455L246.927 189.627L249.904 188.082L246.163 186.102Z" fill="#EF4934"/>
<path d="M242.585 187.868L238.243 190.011L241.864 192.261L246.127 190.047L242.585 187.868Z" fill="#EF4934"/>
<path d="M232.052 193.059L227.846 195.138L231.716 197.544L235.844 195.401L232.052 193.059Z" fill="#EF4934"/>
<path d="M241.799 186.437L246.348 184.159L242.149 181.923L237.858 183.988L241.799 186.437Z" fill="#EF4934"/>
<path d="M169.012 217.053L163.299 219.801L168.576 223.077L174.203 220.257L169.012 217.053Z" fill="#EF4934"/>
<path d="M175.396 220.99L169.997 223.646L175.51 226.779L180.544 224.159L175.396 220.99Z" fill="#C43523"/>
<path d="M227.004 195.551L223.112 197.466L227.096 199.951L230.917 197.957L227.004 195.551Z" fill="#EF4934"/>
<path d="M164.07 214.013L158.479 216.605L162.535 218.833L167.805 216.313L164.07 214.013Z" fill="#EF4934"/>
<path d="M236.851 183.354L241.135 181.311L237.722 179.815L233.966 181.56L236.851 183.354Z" fill="#EF4934"/>
<path d="M168.712 215.885L174.546 213.094L170.89 210.844L165.006 213.571L168.712 215.885Z" fill="#EF4934"/>
<path d="M175.453 212.667L181.08 209.983L177.502 207.776L171.825 210.41L175.453 212.667Z" fill="#EF4934"/>
<path d="M180.809 216.953L175.731 213.828L169.912 216.626L175.06 219.83L180.809 216.953Z" fill="#EF4934"/>
<path d="M187.071 207.121L192.049 204.75L188.599 202.621L183.587 204.949L187.071 207.121Z" fill="#EF4934"/>
<path d="M181.98 209.549L186.2 207.534L182.687 205.369L178.438 207.341L181.98 209.549Z" fill="#EF4934"/>
<path d="M187.028 220.791L182.037 217.715L176.246 220.57L181.351 223.746L187.028 220.791Z" fill="#EF4934"/>
<path d="M222.262 197.886L217.585 200.193L221.698 202.756L226.289 200.364L222.262 197.886Z" fill="#EF4934"/>
<path d="M216.742 200.606L189.328 214.12L194.119 217.103L220.898 203.169L216.742 200.606Z" fill="#EF4934"/>
<path d="M188.478 214.54L182.887 217.295L187.835 220.371L193.312 217.523L188.478 214.54Z" fill="#EF4934"/>
<path d="M176.638 227.527L251.511 188.438" stroke="#EF4934" stroke-width="0.5" stroke-miterlimit="10"/>
<path d="M156.337 214.661L235.951 178.755" stroke="white" stroke-width="0.25" stroke-miterlimit="10"/>
<path d="M231.724 186.935L227.211 189.1L231.338 191.67L235.787 189.442L231.724 186.935Z" stroke="white" stroke-width="0.25" stroke-miterlimit="10"/>
<path d="M226.168 188.452L230.688 186.302L227.71 184.465L223.155 186.579L226.168 188.452Z" stroke="white" stroke-width="0.25" stroke-miterlimit="10"/>
<path d="M192.906 204.33L196.819 202.464L193.434 200.378L189.492 202.208L192.906 204.33Z" stroke="white" stroke-width="0.25" stroke-miterlimit="10"/>
<path d="M236.972 184.408L232.609 186.508L236.644 189.014L240.95 186.864L236.972 184.408Z" stroke="white" stroke-width="0.25" stroke-miterlimit="10"/>
<path d="M228.639 184.03L231.588 185.867L235.958 183.781L233.045 181.987L228.639 184.03Z" stroke="white" stroke-width="0.25" stroke-miterlimit="10"/>
<path d="M216.242 193.194L220.148 191.328L217.049 189.413L213.107 191.243L216.242 193.194Z" stroke="white" stroke-width="0.25" stroke-miterlimit="10"/>
<path d="M197.683 202.051L202.739 199.638L199.425 197.601L194.327 199.965L197.683 202.051Z" stroke="white" stroke-width="0.25" stroke-miterlimit="10"/>
<path d="M210.637 195.871L215.342 193.621L212.179 191.67L207.437 193.877L210.637 195.871Z" stroke="white" stroke-width="0.25" stroke-miterlimit="10"/>
<path d="M221.048 190.901L225.268 188.879L222.226 187.007L217.97 188.986L221.048 190.901Z" stroke="white" stroke-width="0.25" stroke-miterlimit="10"/>
<path d="M197.947 203.162L194.041 205.034L198.754 207.975L202.617 206.038L197.947 203.162Z" stroke="white" stroke-width="0.25" stroke-miterlimit="10"/>
<path d="M193.184 205.447L188.214 207.833L193.034 210.837L197.947 208.381L193.184 205.447Z" stroke="white" stroke-width="0.25" stroke-miterlimit="10"/>
<path d="M181.659 216.526L187.2 213.757L182.244 210.702L176.631 213.401L181.659 216.526Z" stroke="white" stroke-width="0.25" stroke-miterlimit="10"/>
<path d="M226.318 189.527L222.098 191.556L226.318 194.184L230.488 192.097L226.318 189.527Z" stroke="white" stroke-width="0.25" stroke-miterlimit="10"/>
<path d="M221.212 191.984L217.306 193.856L221.612 196.533L225.468 194.604L221.212 191.984Z" stroke="white" stroke-width="0.25" stroke-miterlimit="10"/>
<path d="M216.421 194.283L211.722 196.54L216.121 199.282L220.762 196.96L216.421 194.283Z" stroke="white" stroke-width="0.25" stroke-miterlimit="10"/>
<path d="M203.846 200.321L198.797 202.749L203.431 205.633L208.416 203.141L203.846 200.321Z" stroke="white" stroke-width="0.25" stroke-miterlimit="10"/>
<path d="M210.829 196.968L204.695 199.915L209.23 202.735L215.278 199.709L210.829 196.968Z" stroke="white" stroke-width="0.25" stroke-miterlimit="10"/>
<path d="M242.585 187.868L238.243 190.011L241.864 192.261L246.127 190.047L242.585 187.868Z" stroke="white" stroke-width="0.25" stroke-miterlimit="10"/>
<path d="M232.052 193.059L227.846 195.138L231.717 197.544L235.844 195.401L232.052 193.059Z" stroke="white" stroke-width="0.25" stroke-miterlimit="10"/>
<path d="M241.8 186.437L246.348 184.159L242.149 181.923L237.858 183.988L241.8 186.437Z" stroke="white" stroke-width="0.25" stroke-miterlimit="10"/>
<path d="M169.012 217.053L163.299 219.801L168.576 223.077L174.203 220.257L169.012 217.053Z" stroke="white" stroke-width="0.25" stroke-miterlimit="10"/>
<path d="M227.004 195.551L223.112 197.466L227.096 199.951L230.917 197.957L227.004 195.551Z" stroke="white" stroke-width="0.25" stroke-miterlimit="10"/>
<path d="M236.851 183.354L241.135 181.311L237.722 179.815L233.966 181.56L236.851 183.354Z" stroke="white" stroke-width="0.25" stroke-miterlimit="10"/>
<path d="M168.712 215.885L174.546 213.094L170.89 210.844L165.006 213.571L168.712 215.885Z" stroke="white" stroke-width="0.25" stroke-miterlimit="10"/>
<path d="M175.453 212.667L181.08 209.983L177.502 207.776L171.825 210.41L175.453 212.667Z" stroke="white" stroke-width="0.25" stroke-miterlimit="10"/>
<path d="M180.809 216.953L175.732 213.828L169.912 216.626L175.06 219.83L180.809 216.953Z" stroke="white" stroke-width="0.25" stroke-miterlimit="10"/>
<path d="M187.071 207.121L192.049 204.75L188.599 202.621L183.587 204.949L187.071 207.121Z" stroke="white" stroke-width="0.25" stroke-miterlimit="10"/>
<path d="M181.98 209.549L186.2 207.534L182.687 205.369L178.438 207.341L181.98 209.549Z" stroke="white" stroke-width="0.25" stroke-miterlimit="10"/>
<path d="M187.029 220.791L182.037 217.715L176.246 220.57L181.351 223.746L187.029 220.791Z" stroke="white" stroke-width="0.25" stroke-miterlimit="10"/>
<path d="M222.262 197.886L217.585 200.193L221.698 202.756L226.289 200.364L222.262 197.886Z" stroke="white" stroke-width="0.25" stroke-miterlimit="10"/>
<path d="M216.742 200.606L189.328 214.12L194.119 217.103L220.898 203.169L216.742 200.606Z" stroke="white" stroke-width="0.25" stroke-miterlimit="10"/>
<path d="M188.478 214.54L182.887 217.295L187.836 220.371L193.313 217.523L188.478 214.54Z" stroke="white" stroke-width="0.25" stroke-miterlimit="10"/>
<path d="M200.004 166.487L190.185 161.681L160.686 174.54L168.705 181.418L200.004 166.487Z" fill="#181818"/>
<path d="M200.004 166.487L168.705 181.418L160.686 174.54L160.721 176.483L168.898 182.792L200.732 168.025L200.004 166.487Z" fill="#EF4934"/>
<g style="mix-blend-mode:multiply" opacity="0.4">
<path d="M169.14 180.905C170.354 178.406 166.534 177.124 167.434 174.632C168.034 172.973 171.633 170.346 173.232 169.563C175.032 168.673 176.996 168.288 178.838 167.519C181.28 166.501 183.715 165.269 186.307 164.657C191.035 163.539 195.483 165.191 199.925 166.523L200.004 166.487L190.178 161.681L160.678 174.533L168.698 181.41L169.126 181.204C169.083 181.111 169.076 181.005 169.126 180.898L169.14 180.905Z" fill="#181818"/>
</g>
<path d="M313.844 148.566L309.81 140.948L273.705 142.82L271.87 150.503L313.844 148.566Z" fill="#181818"/>
<path d="M313.844 148.566L271.87 150.503L271.899 152.183L313.873 150.018L313.844 148.566Z" fill="#EF4934"/>
<g style="mix-blend-mode:multiply" opacity="0.4">
<path d="M276.826 144.942C279.618 144.159 282.574 144.557 285.395 143.895C287.43 143.418 289.401 142.628 291.45 142.25C293.286 141.909 295.257 142.115 297.063 141.61L273.705 142.82L271.87 150.503H271.956C272.741 147.989 274.148 145.697 276.833 144.942H276.826Z" fill="#181818"/>
</g>
<path d="M103.572 76.5684L227.589 53.1365L354.212 51.0005L358.811 52.3675L227.618 55.0731L107.643 81.8372L103.572 76.5684Z" fill="#F55743"/>
<path d="M107.428 222.301L76.3725 251.749L62.0264 245.455L90.6901 220.179L107.428 222.301Z" fill="#181818"/>
<path d="M107.428 222.301L76.3725 251.749L62.0264 245.455L62.0692 247.826L76.6724 255.38L107.471 224.522L107.428 222.301Z" fill="#EF4934"/>
<g style="mix-blend-mode:multiply" opacity="0.4">
<path d="M76.1583 251.464C78.5576 249.143 76.6653 244.615 75.7227 241.909C75.23 240.499 74.2517 238.563 74.8444 237.039C75.6227 235.038 77.6579 233.458 79.2503 232.126C81.8639 229.933 84.6774 227.925 87.7266 226.373C92.0754 224.159 96.7099 223.205 101.43 222.073C101.909 221.959 102.394 221.845 102.873 221.724L90.6901 220.179L62.0264 245.455L76.0655 251.614C76.0797 251.564 76.1083 251.514 76.1583 251.464Z" fill="#181818"/>
</g>
<path d="M82.1996 190.026L88.5621 228.63L76.5154 243.789L64.0259 198.975L82.1996 190.026Z" fill="#181818"/>
<path d="M185.836 141.225L186.221 165.91L170.611 174.639L168.555 145.326L185.836 141.225Z" fill="#181818"/>
<path d="M298.42 124.878V144.571H285.259L284.417 125.611L298.42 124.878Z" fill="#181818"/>
<path d="M358.811 52.3676L349.563 126.643L227.618 134.119V55.0732L358.811 52.3676Z" fill="#181818"/>
<path d="M354.319 57.2305L345.329 123.012L232.109 131.008V59.4875L354.319 57.2305Z" fill="#F04934"/>
<path d="M227.618 55.0731V134.119L115.769 183.012L107.278 77.2662L227.618 55.0731Z" fill="#181818"/>
<path d="M115.769 183.012L18.6523 263.54L-3.88452 140.506L107.278 77.2662L115.769 183.012Z" fill="#181818"/>
<path d="M18.6522 263.54L12.6324 262.415L-13.3035 144.094L-3.88457 140.506L18.6522 263.54Z" fill="#C43523"/>
<path d="M-13.3035 144.094L103.572 76.5684L107.278 77.2661L-3.88457 140.506L-13.3035 144.094Z" fill="#F55743"/>
<mask id="mask2_47_500" style="mask-type:luminance" maskUnits="userSpaceOnUse" x="232" y="57" width="123" height="75">
<path d="M354.319 57.2305L345.329 123.012L232.109 131.008V59.4875L354.319 57.2305Z" fill="white"/>
</mask>
<g mask="url(#mask2_47_500)">
<path d="M349.871 124.173L301.755 76.6752L285.881 76.6823L230.16 131.008L349.871 124.173Z" fill="#F89B6C"/>
<path d="M301.755 76.6752L365.473 134.055L356.483 140.05L298.377 76.6823L301.755 76.6752Z" fill="white"/>
<path d="M285.881 76.6823L217.506 153.742L210.915 148.196L283.131 76.6823H285.881Z" fill="white"/>
<path d="M253.568 57.38C253.568 77.2662 271.106 93.3787 292.743 93.3645C314.38 93.3574 331.925 77.2305 331.925 57.3444C331.925 37.4582 314.387 21.3457 292.75 21.3528C271.113 21.3599 253.568 37.4938 253.568 57.3729V57.38Z" fill="#FDB714"/>
<path d="M264.622 58.2202C264.622 72.4958 277.211 84.0658 292.75 84.0587C308.282 84.0587 320.878 72.4744 320.878 58.1988C320.878 43.9232 308.282 32.3532 292.75 32.3604C277.211 32.3604 264.622 43.9446 264.622 58.2273V58.2202Z" fill="white"/>
<path d="M269.371 57.266C269.371 69.128 279.832 78.7471 292.75 78.74C305.661 78.74 316.122 69.1066 316.122 57.2447C316.122 45.3828 305.661 35.7636 292.75 35.7708C279.839 35.7708 269.371 45.397 269.371 57.266Z" fill="#F04934"/>
<path d="M227.753 49.3985C227.753 81.6093 256.853 107.711 292.75 107.697C328.648 107.683 357.747 81.5595 357.747 49.3415C357.747 17.1306 328.655 -8.9713 292.75 -8.94994C256.853 -8.9357 227.753 17.1876 227.753 49.3985ZM234.637 49.6192C234.637 21.1463 260.359 -1.94386 292.093 -1.9581C323.82 -1.97234 349.549 21.0965 349.549 49.5693C349.549 78.0422 323.82 101.132 292.093 101.147C260.359 101.161 234.637 78.0921 234.644 49.6192H234.637Z" stroke="white" stroke-width="0.25" stroke-miterlimit="10"/>
<path d="M344.208 61.2675L336.117 121.567L331.925 121.574L341.066 61.2675H344.208Z" fill="#F55743"/>
<path d="M337.002 68.8931L331.411 103.916L327.384 104.158L333.989 69.0782L337.002 68.8931Z" fill="#F55743"/>
<path d="M249.583 103.233L248.398 72.6025H245.363L246.848 103.233H249.583Z" fill="#F55743"/>
<path d="M243.113 121.61L240.65 72.6025H237.272L239.8 121.61H243.113Z" fill="#F55743"/>
<path d="M313.166 138.769C315.023 134.71 311.802 126.309 308.482 123.183C304.711 119.623 296.613 121.353 298.477 114.376C299.791 109.449 303.34 104.5 298.077 99.7796C294.1 96.2124 285.059 94.3612 281.253 99.0533C278.383 102.592 278.29 113.607 284.245 118.69C281.439 122.172 275.969 123.881 273.905 128.174C271.934 132.282 271.563 137.074 271.899 141.588C279.311 138.448 290.901 141.268 298.856 141.261C301.576 141.261 305.375 141.887 307.996 141.261C310.038 140.769 311.488 139.395 313.423 138.427C312.331 138.292 312.78 137.694 312.373 137.366" fill="#F55743"/>
</g>
<g style="mix-blend-mode:multiply" opacity="0.3">
<path d="M238.872 117.281C241.871 115.565 245.206 114.611 248.626 114.141C258.631 112.767 269.149 114.376 278.561 110.025C287.402 105.946 292.122 98.0924 297.527 90.538C300.691 86.1165 304.197 82.0225 308.532 78.6548C313.123 75.0805 318.193 72.1542 323.42 69.5839C332.389 65.1766 341.808 61.7234 350.763 57.3019L354.319 57.2378L345.329 123.027L232.109 131.022V124.273C233.845 121.496 235.937 118.975 238.872 117.295V117.281Z" fill="#181624"/>
</g>
<path opacity="0.7" d="M309.467 62.3568L309.945 78.6474H346.364L347.757 62.3568H309.467Z" fill="white"/>
<path opacity="0.7" d="M236.394 110.901V125.611L268.771 125.177L268.764 110.331L236.394 110.901Z" fill="white"/>
<path d="M222.362 62.3569L223.526 131.158L122.089 172.582L114.084 83.8736L222.362 62.3569Z" fill="#F04934"/>
<path d="M122.881 89.8544L216.585 68.8362L218.091 126.608L129.544 162.343L122.881 89.8544Z" fill="#181624"/>
<g opacity="0.7">
<path d="M161.15 103.233L170.233 100.527L168.655 82.3926L159.422 84.4218L161.15 103.233Z" fill="white"/>
<path d="M161.307 104.927L162.306 115.764L171.325 113.009L170.39 102.322L161.307 104.927Z" stroke="white" stroke-width="0.25" stroke-miterlimit="10"/>
<path d="M151.245 106.188L159.707 103.667L157.836 84.7635L149.438 86.6076L151.245 106.188Z" fill="white"/>
<path d="M138.52 89L140.398 109.42L149.803 106.622L147.86 86.9495L138.52 89Z" fill="white"/>
<path d="M140.077 124.052L130.158 126.935L131.322 137.829L141.184 134.867L140.077 124.052Z" stroke="white" stroke-width="0.25" stroke-miterlimit="10"/>
<path d="M151.388 107.775L152.402 118.783L160.943 116.177L159.871 105.34L151.388 107.775Z" fill="white"/>
<path d="M175.624 140.349L214.6 124.928L213.207 72.6311L170.611 81.9654L175.624 140.349Z" fill="white"/>
<path d="M162.149 128.431L161.121 117.993L152.559 120.463L153.537 131.058L162.149 128.431Z" fill="#EF4934"/>
<path d="M171.497 114.995L162.478 117.601L163.435 128.039L172.39 125.305L171.497 114.995Z" fill="white"/>
<path d="M138.956 109.854L136.935 89.3489L126.373 91.6629L128.794 112.56L138.956 109.854Z" fill="white"/>
<path d="M172.711 128.929L163.785 131.841L164.956 144.572L173.768 141.083L172.711 128.929Z" fill="white"/>
<path d="M141.833 139.004L131.8 142.279L133.386 157.067L143.233 153.165L141.833 139.004Z" fill="white"/>
<path d="M162.528 132.254L153.902 135.066L155.137 148.459L163.792 145.034L162.528 132.254Z" fill="white"/>
<path d="M151.045 119.196L149.96 108.188L140.534 110.887L141.705 121.901L151.045 119.196Z" stroke="white" stroke-width="0.25" stroke-miterlimit="10"/>
<path d="M153.98 148.915L152.652 135.472L143.09 138.598L144.39 152.71L153.98 148.915Z" fill="white"/>
<path d="M130.015 125.611L140.205 122.5L139.098 111.3L128.794 114.255L130.015 125.611Z" fill="#C43523"/>
<path d="M151.209 120.855L141.705 123.596L142.697 134.361L152.252 131.449L151.209 120.855Z" fill="white"/>
</g>
<path d="M129.001 89.7476L130.158 101.132L173.782 90.6875L172.825 79.7654L129.001 89.7476Z" fill="#FDB714"/>
<path d="M206.987 100.606C203.631 95.7925 204.395 97.4158 202.41 96.3122C201.496 95.8067 200.575 95.4721 199.632 95.2727L199.389 93.272C199.796 92.7024 200.096 92.147 200.203 91.6629C200.611 89.7049 200.011 86.5507 197.647 86.6504C193.448 86.8213 191.542 93.3574 192.991 95.9277C191.913 96.3977 191.006 96.953 190.542 97.309C189.928 97.7789 189.564 99.2457 189.399 101.367C188.935 104.237 187.307 106.515 185.779 107.925C184.251 109.335 179.373 106.828 179.373 106.828C179.373 106.828 178.002 104.792 176.488 105.141C174.975 105.49 176.324 108.872 176.488 109.185C176.653 109.498 183.722 113.735 188.678 112.325C189.521 112.083 190.085 111.755 190.47 111.407C190.656 112.467 188.885 126.651 188.885 126.651L205.231 121.46L204.352 119.118C205.102 118.277 206.116 116.903 207.894 115.778C209.879 114.525 211.251 111.699 211.558 110.588C211.865 109.47 210.336 105.426 206.98 100.613L206.987 100.606ZM202.867 113.735C202.767 113.892 202.646 114.055 202.517 114.219L202.103 113.108C202.103 113.108 201.339 110.595 201.489 109.185C201.632 107.775 202.41 104.009 202.41 104.009L206.987 109.342C206.987 109.342 203.788 112.325 202.867 113.735Z" fill="#181624"/>
<path d="M184.522 121.197L207.48 113.607L207.544 116.027L184.522 123.76V121.197Z" fill="#F04934"/>
<path d="M186.222 124.522L207.48 117.11L207.544 119.538L186.222 126.7V124.522Z" fill="#F04934"/>
<path d="M174.982 101.132L173.768 84.4574L183.072 82.3926" stroke="white" stroke-width="0.25" stroke-miterlimit="10"/>
<path d="M180.344 135.472L211.6 123.76" stroke="white" stroke-width="0.25" stroke-miterlimit="10"/>
<path d="M132.7 123.368C132.229 122.827 131.922 121.667 131.658 120.969C131.308 120.057 131.086 118.989 131.179 118.042C131.908 118.377 132.193 119.773 132.679 120.478C132.572 119.466 131.215 116.818 132.107 116.02C132.922 116.903 133.064 118.206 133.421 119.296C133.486 118.213 132.336 116.113 133.186 115.28C133.871 116.255 134.271 117.537 134.614 118.698C134.714 117.637 133.4 115.472 134.493 114.71C135.542 116.419 135.442 118.377 136.192 120.022C136.635 119.595 137.028 117.551 137.713 118.854C138.134 119.652 137.477 121.41 137.47 122.293" stroke="white" stroke-width="0.25" stroke-miterlimit="10"/>
<path d="M159.022 123.454C160.543 124.963 161.114 126.857 160.3 127.676C159.479 128.495 157.586 127.932 156.058 126.416C154.53 124.899 153.966 123.012 154.78 122.193C155.594 121.375 157.493 121.937 159.014 123.454H159.022Z" stroke="white" stroke-width="0.25" stroke-miterlimit="10"/>
<g style="mix-blend-mode:multiply" opacity="0.3">
<path d="M222.897 95.1232C219.313 99.2172 214.942 102.243 209.937 104.372C206.945 105.647 203.717 106.344 200.868 107.932C198.154 109.449 195.748 111.392 193.548 113.571C189.656 117.423 186.236 121.88 181.701 125.02C175.196 129.527 166.912 130.858 159.243 128.95C151.802 127.099 145.832 122.756 141.733 116.319C137.806 110.154 134.8 103.461 130.836 97.3161C127.052 91.4635 122.16 85.3047 114.905 83.9448C114.726 83.9092 114.648 83.781 114.648 83.6458L114.084 83.7597L122.089 172.468L223.533 131.036L222.926 95.0947C222.926 95.0947 222.912 95.109 222.905 95.1161L222.897 95.1232Z" fill="#181624"/>
</g>
<path d="M111.563 175.237L103.08 89.3489L9.54749 144.095L26.4358 242.472L111.563 175.237Z" fill="#F04934"/>
<path d="M76.6224 113.422L59.2699 123.575L62.8047 146.473L79.743 135.814L76.6224 113.422Z" fill="white"/>
<path d="M68.8387 198.256L65.7466 178.99L48.0085 191.122L51.1363 211.371L68.8387 198.256Z" fill="#201615"/>
<path d="M61.4764 152.368L43.7883 163.789L47.2517 186.238L65.0041 174.383L61.4764 152.368Z" fill="white"/>
<path d="M84.0061 166.501L67.632 177.701L70.6026 196.953L86.5983 185.099L84.0061 166.501Z" fill="white"/>
<path d="M43.0314 158.918L60.7409 147.769L57.0634 124.871L39.3752 135.223L43.0314 158.918Z" fill="#201615"/>
<path d="M26.4001 200.172L45.345 187.512L41.7531 165.099L22.5083 177.516L26.4001 200.172Z" fill="#181624"/>
<path d="M63.5116 151.051L66.9178 173.101L83.392 162.101L80.3499 140.186L63.5116 151.051Z" fill="white"/>
<path d="M99.152 128.046L82.1637 139.011L85.0986 160.962L101.387 150.083L99.152 128.046Z" fill="white"/>
<path d="M46.1305 192.404L27.2784 205.298L30.8989 226.366L49.3796 212.667L46.1305 192.404Z" fill="white"/>
<path d="M85.6842 165.355L88.1692 183.931L103.658 172.461L101.816 154.319L85.6842 165.355Z" fill="#201615"/>
<path d="M81.5853 134.653L98.7306 123.86L96.4884 101.795L78.5861 112.268L81.5853 134.653Z" fill="#181624"/>
<path d="M40.9676 160.214L37.1686 136.512L17.4525 148.053L21.63 172.39L40.9676 160.214Z" fill="white"/>
<path d="M27.5212 158.363C28.3639 159.709 27.6783 161.538 27.5212 163.112C27.3856 164.443 26.9214 166.067 27.1642 167.384C27.2927 168.082 27.4855 168.416 27.7498 168.537L38.0827 162.037C37.3329 160.499 36.276 159.353 34.8407 158.306C32.8055 156.818 33.2269 155.472 33.234 152.966C33.234 150.794 32.4342 148.715 30.3848 147.448C28.9494 146.558 26.4144 147.37 25.4932 148.566C23.9865 150.531 24.1936 154.262 25.0076 156.355C25.4432 157.466 26.8928 157.373 27.5141 158.363H27.5212Z" fill="#F55743"/>
<path d="M24.8434 152.133C20.1446 153.614 22.5226 159.31 26.4144 157.231L24.8434 152.133Z" fill="#F55743"/>
<path d="M23.2367 154.212C22.0799 150.873 23.2224 147.284 26.4073 145.625C29.1423 144.201 32.5056 145.148 33.434 148.566C33.2483 148.637 32.8127 148.523 32.6342 148.566C30.9132 145.981 28.571 145.006 25.9503 146.779C23.151 148.666 23.1367 151.2 23.7009 154.191C23.4938 154.205 23.2938 154.198 23.0867 154.191C22.9296 153.828 22.8083 153.372 22.8797 152.973" fill="#F55743"/>
<path d="M31.9272 149.228C32.2486 150.958 32.4271 152.51 32.8198 154.212C37.7257 154.853 33.9838 145.127 31.2274 148.338L31.9272 149.228Z" fill="#F55743"/>
<path d="M89.1547 149.798C89.8616 150.923 89.2904 152.454 89.1547 153.764C89.0404 154.874 88.6548 156.227 88.8547 157.331C88.9619 157.915 89.119 158.192 89.3403 158.292L97.9666 152.859C97.3382 151.578 96.4527 150.617 95.2602 149.748C93.5606 148.509 93.9105 147.384 93.9177 145.291C93.9177 143.475 93.2536 141.745 91.5397 140.684C90.3401 139.944 88.2192 140.62 87.4551 141.617C86.1983 143.254 86.3697 146.373 87.0481 148.125C87.4123 149.05 88.6262 148.972 89.1404 149.805L89.1547 149.798Z" fill="#F55743"/>
<path d="M86.9196 144.593C82.9921 145.832 84.9773 150.588 88.2335 148.851L86.9196 144.593Z" fill="#F55743"/>
<path d="M85.5771 146.33C84.613 143.539 85.5628 140.549 88.2264 139.16C90.5115 137.971 93.3178 138.762 94.0891 141.617C93.932 141.674 93.5678 141.581 93.425 141.617C91.9896 139.46 90.033 138.648 87.8407 140.122C85.5057 141.695 85.4914 143.81 85.9627 146.309C85.7913 146.316 85.6199 146.316 85.4485 146.309C85.32 146.003 85.2129 145.625 85.27 145.291" fill="#F55743"/>
<path d="M92.8323 142.165C93.0965 143.611 93.2464 144.906 93.5749 146.323C97.6667 146.857 94.5461 138.74 92.2467 141.418L92.8323 142.158V142.165Z" fill="#F55743"/>
<g opacity="0.4">
<path d="M51.7576 173.159C52.6002 174.504 51.9147 176.334 51.7576 177.908C51.6219 179.239 51.1577 180.862 51.4005 182.18C51.5291 182.877 51.7219 183.219 51.9861 183.333L62.319 176.832C61.5692 175.294 60.5124 174.148 59.077 173.102C57.0419 171.613 57.4632 170.268 57.4703 167.762C57.4703 165.59 56.6705 163.511 54.6211 162.244C53.1858 161.354 50.6507 162.165 49.7295 163.361C48.2228 165.326 48.4299 169.057 49.244 171.151C49.6796 172.261 51.1292 172.169 51.7504 173.159H51.7576Z" fill="#F04934"/>
<path d="M49.0797 166.928C44.381 168.409 46.7589 174.105 50.6507 172.026L49.0797 166.928Z" fill="#F04934"/>
<path d="M47.473 169C46.3162 165.661 47.4588 162.073 50.6436 160.414C53.3786 158.99 56.742 159.937 57.6703 163.354C57.4846 163.425 57.049 163.312 56.8705 163.354C55.1495 160.77 52.8073 159.794 50.1866 161.567C47.3873 163.454 47.3731 165.989 47.9372 168.979C47.7301 168.993 47.5302 168.986 47.3231 168.979C47.166 168.616 47.0446 168.16 47.116 167.762" fill="#F04934"/>
<path d="M56.1564 164.016C56.4777 165.747 56.6562 167.299 57.049 169C61.9548 169.641 58.2129 159.915 55.4565 163.126L56.1564 164.016Z" fill="#F04934"/>
</g>
<g opacity="0.4">
<path d="M36.9615 212.838C37.7327 214.063 37.1043 215.743 36.9615 217.174C36.8401 218.392 36.4116 219.873 36.633 221.076C36.7472 221.717 36.9258 222.023 37.1686 222.13L46.6089 216.185C45.9234 214.782 44.9522 213.728 43.6454 212.774C41.7887 211.414 42.1744 210.182 42.1744 207.89C42.1744 205.903 41.446 204.009 39.5751 202.849C38.2611 202.037 35.9403 202.778 35.1048 203.867C33.7266 205.661 33.9123 209.072 34.6621 210.987C35.0548 212.005 36.3831 211.92 36.9543 212.824L36.9615 212.838Z" fill="#F04934"/>
<path d="M34.5122 207.142C30.2133 208.495 32.3913 213.7 35.9475 211.806L34.5122 207.142Z" fill="#F04934"/>
<path d="M33.0412 209.043C31.9843 205.989 33.0269 202.714 35.9404 201.19C38.4397 199.887 41.5175 200.756 42.3601 203.881C42.1887 203.945 41.7888 203.846 41.6317 203.881C40.0607 201.517 37.9113 200.627 35.5191 202.244C32.9626 203.974 32.9483 206.288 33.4625 209.015C33.2768 209.029 33.0912 209.022 32.8983 209.015C32.7555 208.68 32.6413 208.267 32.7055 207.904" fill="#F04934"/>
<path d="M40.9819 204.486C41.2747 206.067 41.4389 207.484 41.796 209.043C46.2805 209.627 42.86 200.741 40.3392 203.675L40.9748 204.486H40.9819Z" fill="#F04934"/>
</g>
<g opacity="0.4">
<path d="M70.8168 160.52C71.6594 161.866 70.9739 163.696 70.8168 165.269C70.6811 166.601 70.2169 168.224 70.4597 169.541C70.5883 170.239 70.7811 170.574 71.0453 170.695L81.3782 164.194C80.6284 162.656 79.5716 161.51 78.1362 160.463C76.1011 158.975 76.5224 157.63 76.5295 155.123C76.5295 152.952 75.7297 150.873 73.6803 149.605C72.245 148.715 69.7099 149.527 68.7887 150.723C67.282 152.688 67.4891 156.419 68.3032 158.513C68.7388 159.623 70.1884 159.531 70.8096 160.52H70.8168Z" fill="#F04934"/>
<path d="M68.1389 154.291C63.4402 155.771 65.8181 161.467 69.7099 159.388L68.1389 154.291Z" fill="#F04934"/>
<path d="M66.5322 156.37C65.3754 153.03 66.518 149.442 69.7028 147.783C72.4378 146.359 75.8012 147.306 76.7295 150.723C76.5438 150.795 76.1082 150.681 75.9297 150.723C74.2088 148.139 71.8665 147.163 69.2458 148.936C66.4466 150.823 66.4323 153.358 66.9964 156.348C66.7893 156.362 66.5894 156.355 66.3823 156.348C66.2252 155.985 66.1038 155.529 66.1752 155.131" fill="#F04934"/>
<path d="M75.2156 151.386C75.5369 153.116 75.7154 154.668 76.1082 156.37C81.014 157.01 77.2721 147.284 74.5157 150.496L75.2156 151.386Z" fill="#F04934"/>
</g>
<g opacity="0.4">
<path d="M76.4581 185.006C77.1079 186.039 76.5795 187.455 76.4581 188.659C76.351 189.684 75.9939 190.937 76.1796 191.948C76.2796 192.489 76.4224 192.746 76.6295 192.838L84.5917 187.826C84.0132 186.644 83.1992 185.761 82.0995 184.949C80.5356 183.803 80.8569 182.763 80.8641 180.834C80.8641 179.161 80.25 177.559 78.6718 176.583C77.565 175.9 75.6083 176.526 74.9085 177.445C73.7446 178.961 73.9088 181.831 74.5372 183.447C74.8728 184.301 75.9868 184.23 76.4724 184.992L76.4581 185.006Z" fill="#F04934"/>
<path d="M74.4015 180.207C70.7811 181.346 72.6092 185.74 75.6084 184.138L74.4015 180.207Z" fill="#F04934"/>
<path d="M73.159 181.809C72.2664 179.239 73.1519 176.469 75.6012 175.195C77.7078 174.098 80.2999 174.825 81.014 177.459C80.8712 177.516 80.5356 177.43 80.3999 177.459C79.0788 175.465 77.265 174.718 75.2513 176.078C73.0947 177.53 73.0805 179.481 73.516 181.788C73.3589 181.795 73.2018 181.788 73.0447 181.788C72.9233 181.51 72.8305 181.161 72.8805 180.848" fill="#F04934"/>
<path d="M79.8572 177.965C80.1 179.296 80.2428 180.492 80.5427 181.802C84.3202 182.293 81.4425 174.803 79.3145 177.274L79.85 177.957L79.8572 177.965Z" fill="#F04934"/>
</g>
<path d="M45.5949 143.995C45.245 143.233 45.0665 142.357 45.1308 141.432C45.3164 138.776 47.4016 136.754 49.7867 136.925C51.6005 137.053 53.0643 138.406 53.5785 140.221L54.2997 139.88C53.5856 137.879 51.9004 136.419 49.8295 136.277C46.9374 136.078 44.4095 138.52 44.1882 141.738C44.1168 142.706 44.2739 143.639 44.5881 144.472L45.5878 143.995H45.5949Z" fill="#F55743"/>
<path d="M48.2085 146.202C48.2085 147.676 47.1374 148.872 45.8163 148.872C44.4952 148.872 43.4241 147.676 43.4241 146.202C43.4241 144.728 44.4952 143.532 45.8163 143.532C47.1374 143.532 48.2085 144.728 48.2085 146.202Z" fill="#F55743"/>
<path d="M56.6919 142.066C56.6919 143.539 55.6208 144.736 54.2997 144.736C52.9786 144.736 51.9075 143.539 51.9075 142.066C51.9075 140.592 52.9786 139.396 54.2997 139.396C55.6208 139.396 56.6919 140.592 56.6919 142.066Z" fill="#F55743"/>
<path d="M66.9464 132.368C66.5965 131.606 66.4179 130.73 66.4822 129.805C66.6679 127.149 68.753 125.127 71.1381 125.298C72.9519 125.426 74.4158 126.779 74.9299 128.594L75.6512 128.253C74.9371 126.252 73.2518 124.792 71.1809 124.65C68.2889 124.451 65.761 126.893 65.5396 130.111C65.4682 131.079 65.6253 132.012 65.9395 132.845L66.9392 132.368H66.9464Z" fill="#F55743"/>
<path d="M69.5599 134.575C69.5599 136.049 68.4888 137.245 67.1677 137.245C65.8466 137.245 64.7755 136.049 64.7755 134.575C64.7755 133.101 65.8466 131.905 67.1677 131.905C68.4888 131.905 69.5599 133.101 69.5599 134.575Z" fill="#F55743"/>
<path d="M78.0433 130.438C78.0433 131.912 76.9722 133.108 75.6511 133.108C74.3301 133.108 73.2589 131.912 73.2589 130.438C73.2589 128.965 74.3301 127.768 75.6511 127.768C76.9722 127.768 78.0433 128.965 78.0433 130.438Z" fill="#F55743"/>
<path d="M92.0396 171.692C91.7182 171.001 91.5612 170.211 91.6183 169.378C91.7897 166.978 93.6677 165.156 95.8243 165.305C97.4596 165.419 98.7806 166.644 99.2448 168.281L99.9018 167.975C99.2591 166.174 97.7309 164.849 95.8671 164.714C93.2536 164.529 90.9756 166.743 90.7685 169.648C90.7042 170.524 90.8471 171.364 91.1327 172.119L92.0396 171.692Z" fill="#F55743"/>
<path d="M94.3961 173.685C94.3961 175.017 93.4321 176.099 92.2324 176.099C91.0328 176.099 90.0687 175.017 90.0687 173.685C90.0687 172.354 91.0328 171.272 92.2324 171.272C93.4321 171.272 94.3961 172.354 94.3961 173.685Z" fill="#F55743"/>
<path d="M102.065 169.954C102.065 171.286 101.101 172.368 99.9017 172.368C98.7021 172.368 97.738 171.286 97.738 169.954C97.738 168.623 98.7021 167.541 99.9017 167.541C101.101 167.541 102.065 168.623 102.065 169.954Z" fill="#F55743"/>
<path d="M30.7418 184.216C30.3919 183.454 30.2133 182.578 30.2776 181.653C30.4633 178.997 32.5484 176.975 34.9335 177.146C36.7473 177.274 38.2112 178.627 38.7253 180.442L39.4466 180.1C38.7325 178.1 37.0472 176.64 34.9764 176.498C32.0843 176.298 29.5564 178.741 29.335 181.966C29.2636 182.934 29.4207 183.867 29.7349 184.7L30.7346 184.223L30.7418 184.216Z" fill="#EF4934"/>
<path d="M33.3554 186.423C33.3554 187.897 32.2842 189.093 30.9631 189.093C29.6421 189.093 28.5709 187.897 28.5709 186.423C28.5709 184.949 29.6421 183.753 30.9631 183.753C32.2842 183.753 33.3554 184.949 33.3554 186.423Z" fill="#EF4934"/>
<path d="M41.8387 182.286C41.8387 183.76 40.7676 184.956 39.4465 184.956C38.1255 184.956 37.0543 183.76 37.0543 182.286C37.0543 180.812 38.1255 179.616 39.4465 179.616C40.7676 179.616 41.8387 180.812 41.8387 182.286Z" fill="#EF4934"/>
<path d="M85.1843 121.695C84.8344 120.933 84.6558 120.057 84.7201 119.132C84.9058 116.476 86.9909 114.454 89.376 114.625C91.1898 114.753 92.6537 116.106 93.1678 117.921L93.8891 117.58C93.175 115.579 91.4897 114.119 89.4189 113.977C86.5268 113.778 83.9989 116.22 83.7775 119.438C83.7061 120.406 83.8632 121.339 84.1774 122.172L85.1771 121.695H85.1843Z" fill="#EF4934"/>
<path d="M87.7979 123.902C87.7979 125.376 86.7267 126.572 85.4056 126.572C84.0846 126.572 83.0134 125.376 83.0134 123.902C83.0134 122.428 84.0846 121.232 85.4056 121.232C86.7267 121.232 87.7979 122.428 87.7979 123.902Z" fill="#EF4934"/>
<path d="M96.2813 119.766C96.2813 121.239 95.2101 122.436 93.889 122.436C92.568 122.436 91.4968 121.239 91.4968 119.766C91.4968 118.292 92.568 117.096 93.889 117.096C95.2101 117.096 96.2813 118.292 96.2813 119.766Z" fill="#EF4934"/>
<path d="M54.8068 196.612C54.4569 195.85 54.2784 194.974 54.3427 194.049C54.5283 191.393 56.6135 189.371 58.9986 189.542C60.8124 189.67 62.2763 191.023 62.7904 192.838L63.5117 192.496C62.7976 190.496 61.1123 189.036 59.0414 188.894C56.1493 188.687 53.6214 191.136 53.4001 194.362C53.3287 195.33 53.4858 196.263 53.8 197.096L54.7997 196.619L54.8068 196.612Z" fill="#EF4934"/>
<path d="M57.4204 198.812C57.4204 200.286 56.3493 201.482 55.0282 201.482C53.7071 201.482 52.636 200.286 52.636 198.812C52.636 197.338 53.7071 196.142 55.0282 196.142C56.3493 196.142 57.4204 197.338 57.4204 198.812Z" fill="#EF4934"/>
<path d="M65.9038 194.682C65.9038 196.156 64.8327 197.352 63.5116 197.352C62.1905 197.352 61.1194 196.156 61.1194 194.682C61.1194 193.208 62.1905 192.012 63.5116 192.012C64.8327 192.012 65.9038 193.208 65.9038 194.682Z" fill="#EF4934"/>
<g style="mix-blend-mode:multiply" opacity="0.3">
<path d="M101.951 153.151C96.3884 154.739 92.3038 158.712 87.9764 162.315C84.713 165.027 81.3425 167.726 77.4935 169.57C73.5517 171.457 69.3314 172.439 64.9683 172.71C55.8636 173.272 46.4733 171.371 38.2898 167.341C34.6836 165.561 31.2345 163.432 28.3067 160.67C25.6217 158.142 23.2367 155.33 20.7445 152.617C17.4954 149.086 13.9177 145.697 9.66174 144.023L9.54749 144.087L26.4358 242.464L111.563 175.23L109.371 153.023C106.986 152.332 104.293 152.475 101.958 153.144L101.951 153.151Z" fill="#181624"/>
</g>
<path d="M351.956 329.321C361.289 332.39 396.108 349.329 404.649 359.574C409.526 365.434 411.947 369.649 405.32 369.101C402.471 368.873 397.879 364.416 395.151 363.049C387.053 358.969 378.227 353.501 370.244 349.656C358.44 343.967 344.158 351.721 346.1 339.282L351.948 329.321H351.956Z" fill="#1C1C1C"/>
<path d="M341.087 328.282C331.261 327.783 292.6 331.037 280.875 337.516C274.176 341.219 270.37 344.273 276.74 346.153C279.475 346.958 285.395 344.466 288.437 344.167C297.477 343.284 307.71 341.361 316.558 340.649C329.647 339.596 340.095 351.956 342.865 339.667L341.08 328.282H341.087Z" fill="#1C1C1C"/>
<path d="M269.663 350.646C269.199 355.359 272.698 359.56 277.468 360.016C282.239 360.471 286.48 357.018 286.937 352.298C287.401 347.584 283.902 343.383 279.132 342.928C274.362 342.472 270.12 345.925 269.656 350.646H269.663Z" fill="#1C1C1C"/>
<path d="M277.868 346.253C279.989 346.452 281.717 347.783 282.517 349.585C281.689 348.923 280.66 348.488 279.518 348.374C276.397 348.075 273.627 350.332 273.327 353.423C273.227 354.412 273.405 355.366 273.777 356.214C272.334 355.067 271.484 353.252 271.677 351.294C271.977 348.211 274.755 345.954 277.868 346.253Z" fill="#C43523"/>
<path d="M351.848 335.573C351.848 335.573 354.655 341.981 358.368 359.638C362.081 377.296 361.624 382.522 361.624 382.522L354.298 384.031C354.298 384.031 353.548 379.902 348.692 367.905C343.836 355.907 338.045 347.399 339.438 342.864C340.83 338.321 351.848 335.573 351.848 335.573Z" fill="#1C1C1C"/>
<path d="M329.833 332.283C329.833 332.283 325.841 338.036 318.772 354.669C311.709 371.294 311.145 376.513 311.145 376.513L318.043 379.382C318.043 379.382 319.579 375.473 326.669 364.615C333.76 353.757 341.087 346.509 340.601 341.781C340.116 337.061 329.826 332.276 329.826 332.276L329.833 332.283Z" fill="#1C1C1C"/>
<path d="M365.202 226.516C361.26 224.116 356.569 222.407 351.941 220.941C346.928 219.36 341.794 218.043 336.624 216.925C332.068 215.935 327.491 215.202 322.949 214.134C320.285 213.507 317.622 212.881 314.937 212.354C312.695 211.913 310.252 211.35 307.982 211.258C306.918 211.215 305.875 211.258 304.84 211.329C305.447 208.822 307.053 206.43 309.081 205.298C312.573 203.354 322.663 205.512 327.462 206.615C335.139 208.388 342.737 210.773 350.292 212.924C353.805 213.92 363.545 216.562 364.888 217.423C369.172 220.158 370.529 226.665 369.501 230.645C368.751 229.143 367.194 227.719 365.202 226.509V226.516Z" fill="#1C1C1C"/>
<path d="M307.596 211.023C312.623 211.229 318.043 212.76 322.956 213.906C327.512 214.967 332.097 215.708 336.667 216.704C341.851 217.836 347.014 219.132 352.034 220.734C357.483 222.472 368.173 226.131 369.515 230.788C369.501 230.838 369.479 230.887 369.465 230.93C367.23 236.398 361.66 237.274 353.612 234.875C344.95 232.297 336.046 228.951 327.512 226.089C321.249 223.988 309.496 221.048 305.839 216.434C304.69 214.981 304.447 213.016 304.818 211.08C305.732 211.015 306.661 210.987 307.603 211.023H307.596Z" fill="#1C1C1C"/>
<path d="M309.089 205.305C309.089 205.305 330.354 208.267 334.453 210.296C338.545 212.325 337.281 213.735 332.854 212.753C328.433 211.763 314.78 208.167 312.502 208.281C310.231 208.395 314.23 211.621 312.416 211.557C310.602 211.492 304.804 211.079 304.804 211.079C304.804 211.079 305.125 209.52 306.211 208.125C307.296 206.722 309.081 205.305 309.081 205.305H309.089Z" fill="#0E0908"/>
<path d="M314.837 280.991C316.429 277.16 318.129 272.938 319.593 268.702C324.042 255.843 334.639 223.625 334.639 223.625L347.021 226.459C347.021 226.459 340.487 264.636 334.046 285.177C328.083 287.819 320.135 285.569 314.837 280.984V280.991Z" fill="#1C1C1C"/>
<path d="M381.633 260.592C381.633 260.592 379.327 261.617 365.98 259.097C352.634 256.576 339.702 245.248 323.199 238.869C303.947 231.421 290.836 229.492 283.974 238.655C277.111 247.819 278.761 254.426 275.183 272.205C271.613 289.983 267.021 294.683 272.334 301.368C277.647 308.047 333.925 305.199 355.105 309.279C376.278 313.358 389.981 323.462 395.351 315.466C400.721 307.47 390.809 280.122 387.353 274.213C383.897 268.303 381.633 260.592 381.633 260.592Z" fill="#C43523"/>
<path d="M322.956 240.093C328.369 243.831 333.468 248.239 337.467 253.458C340.687 257.666 343.865 263.034 343.336 268.531C342.744 274.675 337.552 278.549 332.132 280.713C319.7 285.669 306.282 284.002 293.471 281.667C287.123 280.507 280.418 278.983 273.755 278.563C274.234 276.648 274.719 274.547 275.19 272.219C278.768 254.44 277.119 247.833 283.981 238.669C290.201 230.36 301.555 231.172 317.972 236.946C319.686 237.936 321.35 238.99 322.963 240.101L322.956 240.093Z" fill="#F55743"/>
<path d="M309.36 238.961C303.04 243.611 295.771 248.986 290.472 254.953C294.564 260.798 296.063 271.336 298.177 277.182" stroke="#1C1C1C" stroke-width="0.5" stroke-miterlimit="10"/>
<path d="M314.966 243.191C313.145 244.494 299.92 255.501 299.92 255.501C299.92 255.501 305.218 268.182 305.918 274.305C305.754 275.117 305.997 273.13 305.975 273.55" stroke="#1C1C1C" stroke-width="0.5" stroke-miterlimit="10"/>
<path d="M326.891 244.33C325.07 245.633 309.367 255.501 309.367 255.501C309.367 255.501 317.151 269.321 317.843 275.444C317.672 276.256 317.922 274.262 317.9 274.69" stroke="#1C1C1C" stroke-width="0.5" stroke-miterlimit="10"/>
<path d="M379.548 223.219C385.082 214.519 390.995 213.871 399.393 207.726C407.798 201.582 424.215 189.264 429.263 181.453C434.319 173.643 433.441 154.661 434.762 145.141C436.083 135.622 439.86 132.895 444.581 129.492C449.294 126.088 474.208 122.663 474.208 122.663C474.208 122.663 472.273 129.556 469.781 137.687C469.967 136.683 469.924 135.002 469.924 135.002C469.924 135.002 455.128 133.301 451.857 136.405C448.23 139.844 446.302 152.29 449.472 156.149C451.557 158.684 462.183 159.773 462.183 159.773C461.647 160.99 461.162 161.966 460.733 162.628C456.763 168.773 378.977 260.343 378.977 260.343C378.977 260.343 377.841 255.259 375.421 248.082C373 240.905 374 231.92 379.534 223.219H379.548Z" fill="#0E0908"/>
<path d="M469.61 138.256C467.21 146.067 464.34 154.874 462.19 159.773C462.204 159.73 469.231 138.933 469.61 138.256Z" fill="#0E0908"/>
<path d="M378.02 223.07C383.554 214.369 389.467 213.721 397.865 207.584C406.262 201.439 422.679 189.121 427.735 181.311C432.791 173.493 431.913 154.518 433.234 144.999C434.555 135.479 438.332 132.752 443.045 129.349C447.765 125.946 472.673 122.521 472.673 122.521C472.673 122.521 472.623 122.692 472.537 123.005C466.475 123.909 448.865 126.722 444.98 129.527C440.26 132.93 436.483 135.657 435.162 145.177C433.841 154.696 434.719 173.671 429.663 181.489C424.607 189.299 408.19 201.617 399.793 207.762C391.395 213.899 385.475 214.547 379.948 223.255C374.414 231.955 373.414 240.941 375.835 248.118C377.363 252.66 378.384 256.363 378.92 258.463C377.977 259.574 377.456 260.186 377.456 260.186C377.456 260.186 376.32 255.103 373.9 247.926C371.479 240.749 372.479 231.763 378.013 223.063L378.02 223.07Z" fill="#1C1C1C"/>
<g style="mix-blend-mode:multiply" opacity="0.3">
<path d="M393.58 220.385C396.951 217.48 400.807 215.209 404.549 212.796C408.962 209.948 413.375 207.092 417.788 204.244C424.707 199.773 430.285 194.084 434.633 187.135C436.761 183.739 438.604 180.193 440.582 176.711C442.417 173.486 444.966 170.887 448.38 169.314C451.786 167.747 455.363 166.85 458.655 165.383C445.516 182.016 378.984 260.336 378.984 260.336C378.984 260.336 378.477 258.064 377.42 254.426C379.313 241.482 383.369 229.172 393.573 220.378L393.58 220.385Z" fill="#0E0908"/>
<path d="M469.61 138.256C467.21 146.067 464.34 154.874 462.19 159.773C462.204 159.73 469.231 138.933 469.61 138.256Z" fill="#FDAE1B"/>
</g>
<path d="M495.574 83.0762C501.401 81.1039 518.482 86.7501 519.739 93.8131C520.996 100.876 512.612 133.144 501.108 148.744C489.597 164.344 479.05 182.899 473.087 191.977C467.132 201.047 467.582 208.424 455.578 223.475C443.574 238.527 428.307 255.928 410.019 266.544C391.731 277.16 389.096 285.014 385.847 282.386C382.59 279.759 378.906 264.786 378.991 260.343C379.077 255.893 399.357 234.746 408.719 224.009C418.074 213.28 437.104 173.073 442.374 167.035C447.644 160.997 453.371 162.279 456.092 162.364C458.813 162.45 465.268 152.261 467.675 143.618C470.081 134.974 473.102 120 480.121 108.046C487.141 96.0986 487.905 85.675 495.574 83.0762Z" fill="#C43523"/>
<path d="M499.466 102.464C499.673 111.521 496.774 120.577 493.268 128.844C491.111 133.934 488.64 138.897 485.791 143.646C483.399 147.633 480.678 151.435 477.001 154.362C473.509 157.146 469.345 159.26 464.811 159.673C463.083 159.83 461.383 159.759 459.719 159.502C462.626 155.878 466.053 149.406 467.667 143.618C470.074 134.974 473.094 120.001 480.114 108.046C485.513 98.8541 487.219 90.5664 491.204 86.0524C498.352 86.3229 499.337 97.1881 499.459 102.464H499.466Z" fill="#F55743"/>
<path d="M440.439 208.296C434.141 221.325 425.222 234.106 414.032 243.49C406.619 249.706 398.414 255.11 389.724 259.417C386.382 261.069 382.904 262.635 379.334 263.917C379.098 262.443 378.977 261.197 378.991 260.343C379.077 255.893 399.357 234.746 408.719 224.009C416.952 214.561 432.677 182.293 439.925 170.574C450.65 180.407 446.045 196.711 440.446 208.296H440.439Z" fill="#F55743"/>
<path d="M505.15 95.1232C500.037 98.8398 492.032 114.418 489.719 119.281C485.891 127.32 482.478 136.732 480.364 145.219" stroke="#1C1C1C" stroke-width="0.5" stroke-miterlimit="10"/>
<path d="M493.882 92.3464C488.762 96.0702 484.67 107.441 482.356 112.304C478.529 120.342 475.115 129.755 472.995 138.242" stroke="#1C1C1C" stroke-width="0.5" stroke-miterlimit="10"/>
<path d="M481.278 156.106C479.386 154.212 468.446 147.697 466.603 146.601" stroke="#1C1C1C" stroke-width="0.5" stroke-miterlimit="10"/>
<path d="M475.43 164.031C472.073 162.571 465.711 156.918 462.697 155.095" stroke="#1C1C1C" stroke-width="0.5" stroke-miterlimit="10"/>
<path d="M470.431 178.612C462.233 175.487 458.406 170.83 454.906 163.212" stroke="#1C1C1C" stroke-width="0.5" stroke-miterlimit="10"/>
<path d="M456.856 202.379C449.765 201.254 443.595 198.812 437.161 196.968C436.283 190.382 435.447 185.497 435.226 180.25" stroke="#1C1C1C" stroke-width="0.5" stroke-miterlimit="10"/>
<path d="M447.816 218.178C440.725 217.06 434.555 214.618 428.121 212.767C427.243 206.181 426.414 201.297 426.186 196.049" stroke="#1C1C1C" stroke-width="0.5" stroke-miterlimit="10"/>
<path d="M438.032 233.892L419.573 229.043L415.181 215.06C415.181 215.06 396.365 237.21 390.352 242.82C384.347 248.438 378.984 258.705 377.52 260.428C376.056 262.151 379.577 271.649 382.726 276.904C385.875 282.158 417.402 257.381 423.336 252.546C429.271 247.712 438.032 233.892 438.032 233.892Z" fill="#0E0908"/>
<mask id="mask3_47_500" style="mask-type:luminance" maskUnits="userSpaceOnUse" x="377" y="215" width="62" height="63">
<path d="M438.032 233.892L419.573 229.043L415.181 215.06C415.181 215.06 396.365 237.21 390.352 242.82C384.347 248.438 378.984 258.705 377.52 260.428C376.056 262.151 379.577 271.649 382.726 276.904C385.875 282.158 417.402 257.381 423.336 252.546C429.271 247.712 438.032 233.892 438.032 233.892Z" fill="white"/>
</mask>
<g mask="url(#mask3_47_500)">
<path d="M430.542 222.721L431.399 255.622" stroke="#181624" stroke-miterlimit="10"/>
<path d="M425.6 223.817L426.464 256.726" stroke="#181624" stroke-miterlimit="10"/>
<path d="M421.651 221.873L421.48 265.305" stroke="#181624" stroke-miterlimit="10"/>
<path d="M415.931 212.268L416.617 267.812" stroke="#181624" stroke-miterlimit="10"/>
<path d="M409.354 216.996L410.04 272.539" stroke="#181624" stroke-miterlimit="10"/>
<path d="M404.02 221.759L404.713 277.303" stroke="#181624" stroke-miterlimit="10"/>
<path d="M397.622 224.657L398.315 280.2" stroke="#181624" stroke-miterlimit="10"/>
<path d="M391.174 228.089L391.859 283.632" stroke="#181624" stroke-miterlimit="10"/>
<path d="M385.018 228.502L385.704 284.052" stroke="#181624" stroke-miterlimit="10"/>
<path d="M378.663 230.944L379.348 286.487" stroke="#181624" stroke-miterlimit="10"/>
<path d="M416.738 197.694L381.555 230.46" stroke="#181624" stroke-miterlimit="10"/>
<path d="M418.78 202.571L383.597 235.337" stroke="#181624" stroke-miterlimit="10"/>
<path d="M423.386 203.596L377.784 247.84" stroke="#181624" stroke-miterlimit="10"/>
<path d="M437.204 198.185L378.298 254.084" stroke="#181624" stroke-miterlimit="10"/>
<path d="M436.476 207.996L377.57 263.896" stroke="#181624" stroke-miterlimit="10"/>
<path d="M434.919 216.889L376.006 272.781" stroke="#181624" stroke-miterlimit="10"/>
<path d="M436.004 224.7L377.099 280.599" stroke="#181624" stroke-miterlimit="10"/>
<path d="M436.569 233.102L377.656 288.994" stroke="#181624" stroke-miterlimit="10"/>
<path d="M440.11 238.199L381.205 294.099" stroke="#181624" stroke-miterlimit="10"/>
<path d="M441.653 245.519L382.747 301.411" stroke="#181624" stroke-miterlimit="10"/>
</g>
<path d="M511.391 127.348C510.334 133.849 507.485 140.214 504.85 146.394C502.222 152.553 500.266 159.039 497.538 165.391C492.668 176.726 491.404 189.542 490.825 202.144C490.154 216.761 485.605 228.908 477.358 241.062C473.459 246.808 459.262 269.627 455.606 275.06C451.886 280.585 448.28 286.374 444.602 291.949C434.648 307.022 411.811 331.279 393.059 316.534C390.509 314.533 388.61 312.027 386.296 309.805C384.004 307.605 380.883 306.053 379.234 303.262C375.256 296.562 378.998 290.147 383.576 284.843C392.295 274.747 403.799 268.431 414.175 260.008C427.785 248.965 440.939 238.356 450.872 223.774C455.149 217.495 459.441 210.104 462.154 203.255C465.047 195.978 467.789 188.716 472.487 182.258C483.135 167.619 494.831 153.692 502.994 137.338C504.607 134.112 507.721 128.238 510.984 126.964" fill="#0E0908"/>
<path d="M383.568 284.85C387.446 280.364 391.866 276.626 396.494 273.116C403.063 277.815 411.097 280.649 419.209 279.93C428.985 279.068 436.847 273.038 443.331 266.139C450.343 258.691 455.892 250.09 461.34 241.489C469.867 228.032 474.251 207.989 490.833 201.745C490.833 201.873 490.818 202.009 490.811 202.144C490.14 216.761 485.591 228.908 477.343 241.062C473.444 246.808 459.248 269.627 455.592 275.06C451.872 280.585 448.265 286.374 444.588 291.949C434.633 307.022 411.797 331.279 393.044 316.534C390.495 314.533 388.596 312.027 386.282 309.805C383.99 307.605 380.869 306.053 379.22 303.262C375.242 296.562 378.984 290.147 383.561 284.843L383.568 284.85Z" fill="#1C1C1C"/>
<path d="M484.427 189.492C485.92 197.651 486.562 205.675 483.777 213.657C480.978 221.688 477.101 229.421 472.545 236.612C467.946 243.888 462.811 250.816 457.42 257.538C452.928 263.134 444.595 270.054 441.674 275.686" stroke="#181624" stroke-width="0.5" stroke-miterlimit="10"/>
<path d="M401.178 262.578C419.466 251.927 434.74 234.49 446.744 219.396C458.755 204.301 458.306 196.911 464.261 187.811C470.217 178.712 482.599 161.275 492.289 144.479C504.336 123.589 512.591 88.0673 510.656 85.6038C515.683 87.6543 519.118 90.3457 519.732 93.8131C520.989 100.89 512.47 134.611 500.951 150.253C489.44 165.889 478.879 184.493 472.923 193.593C466.96 202.692 467.41 210.083 455.399 225.17C443.395 240.264 428.121 257.701 409.833 268.353C391.538 279.004 383.554 293.75 380.305 291.123C379.034 290.097 378.02 285.37 376.87 281.931C380.112 279.147 390.481 268.808 401.171 262.578H401.178Z" fill="#1C1C1C"/>
<path d="M407.212 266.167C425.95 255.359 441.581 237.659 453.878 222.329C466.175 207 465.711 199.495 471.809 190.254C477.907 181.019 488.712 162.122 500.501 146.245C511.348 131.635 519.81 97.2094 518.368 90.78C518.732 91.549 520.275 92.4888 520.432 94.7886C520.789 99.8153 513.305 134.212 501.787 149.848C490.275 165.483 479.714 184.088 473.758 193.18C467.796 202.279 468.246 209.67 456.242 224.764C444.231 239.859 428.963 257.295 410.668 267.947C392.38 278.599 384.39 293.344 381.141 290.717C380.726 290.382 380.334 289.642 379.962 288.695C384.447 285.519 392.63 274.583 407.212 266.174V266.167Z" fill="#EF4934"/>
<path d="M388.496 298.029C382.597 295.9 376.563 294.868 370.286 293.323C354.312 289.392 338.395 283.632 322.292 279.809C309.917 276.875 284.695 269.755 275.083 280.806C268.421 288.467 264.893 302.7 277.097 307.805C299.048 316.997 333.318 318.705 357.418 321.012C368.137 322.038 386.482 321.76 396.129 317.694L388.489 298.029H388.496Z" fill="#1C1C1C"/>
<path d="M370.465 303.625C353.248 299.574 336.088 293.693 318.736 289.755C306.382 286.95 282.16 280.485 270.499 288.289C271.263 287.036 272.113 285.861 273.02 284.814C282.631 273.764 307.853 280.877 320.228 283.81C336.331 287.627 352.248 293.394 368.223 297.324C374.5 298.869 380.534 299.901 386.432 302.03L388.767 308.04C382.826 306.153 376.763 305.106 370.465 303.625Z" fill="#EF4934"/>
<path d="M385.932 280.649C381.426 277.908 376.063 275.95 370.772 274.277C365.038 272.468 359.168 270.966 353.248 269.684C348.035 268.559 342.808 267.705 337.616 266.495C334.574 265.783 331.525 265.063 328.455 264.465C325.891 263.96 323.092 263.312 320.507 263.212C319.293 263.162 318.1 263.212 316.915 263.291C317.608 260.428 319.45 257.687 321.771 256.398C325.77 254.177 337.302 256.64 342.787 257.908C351.57 259.93 360.253 262.664 368.894 265.12C372.914 266.267 384.047 269.286 385.589 270.261C390.495 273.394 392.038 280.834 390.859 285.384C390.002 283.668 388.224 282.037 385.939 280.649H385.932Z" fill="#1C1C1C"/>
<path d="M320.064 262.935C325.805 263.17 332.011 264.914 337.624 266.231C342.829 267.449 348.078 268.296 353.305 269.428C359.232 270.717 365.138 272.205 370.872 274.035C377.106 276.021 389.331 280.208 390.866 285.533C390.845 285.59 390.831 285.64 390.802 285.697C388.246 291.949 381.876 292.952 372.671 290.211C362.767 287.264 352.584 283.44 342.822 280.165C335.667 277.758 322.221 274.405 318.043 269.129C316.729 267.463 316.451 265.22 316.879 263.006C317.929 262.935 318.986 262.899 320.064 262.942V262.935Z" fill="#1C1C1C"/>
<path d="M350.77 262.101C346.086 259.787 321.764 256.391 321.764 256.391C321.764 256.391 319.943 257.844 318.693 259.36C321.756 258.705 344.879 264.003 348.942 264.914C353.998 266.046 355.447 264.423 350.77 262.109V262.101Z" fill="#F04934"/>
<path d="M328.34 342.949C330.154 338.57 350.977 277.353 350.977 277.353L365.138 280.592C365.138 280.592 357.661 324.245 350.299 347.741C343.479 350.76 334.396 348.189 328.333 342.949H328.34Z" fill="#1C1C1C"/>
</g>
</g>
<defs>
<clipPath id="clip0_47_500">
<rect width="532" height="356" rx="22" fill="white"/>
</clipPath>
</defs>
</svg>
