<svg width="20" height="20" viewBox="0 0 20 20" fill="none" xmlns="http://www.w3.org/2000/svg">
<path d="M17.7778 0C18.3671 0 18.9324 0.234126 19.3491 0.650874C19.7659 1.06762 20 1.63285 20 2.22222V17.7778C20 18.3671 19.7659 18.9324 19.3491 19.3491C18.9324 19.7659 18.3671 20 17.7778 20H2.22222C1.63285 20 1.06762 19.7659 0.650874 19.3491C0.234126 18.9324 0 18.3671 0 17.7778V2.22222C0 1.63285 0.234126 1.06762 0.650874 0.650874C1.06762 0.234126 1.63285 0 2.22222 0H17.7778ZM17.2222 17.2222V11.3333C17.2222 10.3727 16.8406 9.45133 16.1613 8.77204C15.482 8.09274 14.5607 7.71111 13.6 7.71111C12.6556 7.71111 11.5556 8.28889 11.0222 9.15556V7.92222H7.92222V17.2222H11.0222V11.7444C11.0222 10.8889 11.7111 10.1889 12.5667 10.1889C12.9792 10.1889 13.3749 10.3528 13.6666 10.6445C13.9583 10.9362 14.1222 11.3319 14.1222 11.7444V17.2222H17.2222ZM4.31111 6.17778C4.80618 6.17778 5.28098 5.98111 5.63104 5.63104C5.98111 5.28098 6.17778 4.80618 6.17778 4.31111C6.17778 3.27778 5.34444 2.43333 4.31111 2.43333C3.81309 2.43333 3.33547 2.63117 2.98332 2.98332C2.63117 3.33547 2.43333 3.81309 2.43333 4.31111C2.43333 5.34444 3.27778 6.17778 4.31111 6.17778ZM5.85556 17.2222V7.92222H2.77778V17.2222H5.85556Z" fill="#221F1F"/>
</svg>
