<svg width="20" height="20" viewBox="0 0 20 20" fill="none" xmlns="http://www.w3.org/2000/svg">
<path d="M10 6.67143C8.15714 6.67143 6.67143 8.17143 6.67143 10C6.67143 11.8286 8.17143 13.3286 10 13.3286C11.8286 13.3286 13.3286 11.8286 13.3286 10C13.3286 8.17143 11.8286 6.67143 10 6.67143ZM20 10C20 8.61429 20 7.25714 19.9286 5.87143C19.8571 4.27143 19.4857 2.84286 18.3143 1.68571C17.1429 0.514286 15.7286 0.142857 14.1286 0.0714285C12.7429 -6.9184e-08 11.3857 0 10 0C8.61429 0 7.25714 -6.9184e-08 5.87143 0.0714285C4.27143 0.142857 2.84286 0.514286 1.68571 1.68571C0.514286 2.85714 0.142857 4.27143 0.0714285 5.87143C-6.9184e-08 7.25714 0 8.61429 0 10C0 11.3857 -6.9184e-08 12.7429 0.0714285 14.1286C0.142857 15.7286 0.514286 17.1571 1.68571 18.3143C2.85714 19.4857 4.27143 19.8571 5.87143 19.9286C7.25714 20 8.61429 20 10 20C11.3857 20 12.7429 20 14.1286 19.9286C15.7286 19.8571 17.1571 19.4857 18.3143 18.3143C19.4857 17.1429 19.8571 15.7286 19.9286 14.1286C20.0143 12.7571 20 11.3857 20 10ZM10 15.1286C7.15714 15.1286 4.87143 12.8429 4.87143 10C4.87143 7.15714 7.15714 4.87143 10 4.87143C12.8429 4.87143 15.1286 7.15714 15.1286 10C15.1286 12.8429 12.8429 15.1286 10 15.1286ZM15.3429 5.85714C14.6857 5.85714 14.1429 5.32857 14.1429 4.65714C14.1429 3.98571 14.6714 3.45714 15.3429 3.45714C16.0143 3.45714 16.5429 3.98571 16.5429 4.65714C16.5465 4.81362 16.5179 4.96918 16.4589 5.11416C16.4 5.25915 16.3118 5.39048 16.2 5.5C16.0905 5.61182 15.9592 5.69995 15.8142 5.75893C15.6692 5.81791 15.5136 5.84647 15.3571 5.84286L15.3429 5.85714Z" fill="#221F1F"/>
</svg>
