<svg xmlns="http://www.w3.org/2000/svg">
    <defs>
        <symbol id="logo" viewBox="0 0 55 58">
            <path d="M2.041 37.684H.451L0 36.63l7.111.129.43 1.031-4.898 5.135-.452-1.074 1.118-1.139-1.268-3.03zm4.19.021-3.137-.021.945 2.256 2.191-2.235zM13.149 46.879l-1.032.086c.043-.688-.193-1.397-.666-1.89-.902-.946-2.341-.99-3.265-.087-.924.881-.946 2.32-.043 3.266.45.472 1.138.752 1.804.773l-.064.967c-.924-.022-1.87-.408-2.514-1.074-1.31-1.375-1.31-3.438.043-4.727 1.332-1.289 3.395-1.181 4.727.194.666.687 1.031 1.61 1.01 2.492zM14.91 52.723l-1.182 1.074-1.03-.473 5.306-4.726 1.031.472-.107 7.112-1.075-.495.043-1.59-2.986-1.374zm3.094-2.836-2.32 2.127 2.234 1.01.086-3.137zM26.813 50.81c1.955.065 3.308 1.483 3.244 3.374-.065 1.869-1.547 3.2-3.524 3.136l-2.642-.107.236-6.51 2.686.108zm-1.784 5.458 1.59.064c1.268.043 2.256-.86 2.32-2.17.044-1.332-.902-2.32-2.19-2.363l-1.548-.065-.172 4.534zM34.353 50.853l.58 1.655 3.008-1.075.323.924-3.008 1.075.601 1.697 3.46-1.225.322.924-4.49 1.59-2.192-6.145 4.383-1.568.322.924-3.309 1.224zM48.855 48.103l-3.308-3.566 1.332 4.469-.537.494-4.34-1.676 3.308 3.567-.751.709-4.405-4.791.967-.881 4.512 1.719-1.354-4.641.946-.881 4.404 4.791-.773.688zM53.969 39.982l-.451.989-1.934-.881-4.984.43.45-1.01 3.653-.387-2.148-2.965.45-1.01 2.987 3.954 1.977.88zM2.47 26.469l-.88 1.805-.946-.795v2.728h3.653V27.48l-.946.795-.88-1.805zM54.055 28.274l-.881-1.805-.881 1.805-.946-.795v2.728H55V27.48l-.945.795zM9.066 16.586l-4.34-2.191 2.793 3.738-.322.644-4.662-.064 4.34 2.213-.473.924-5.8-2.944.58-1.16 4.833.043-2.878-3.867.58-1.16 5.8 2.943-.45.88zM11.816 11.236l.409 1.547-.903.71-1.761-6.897.88-.688 6.252 3.352-.924.73-1.396-.773-2.557 2.02zM10.7 7.176l.817 3.03 1.933-1.526-2.75-1.504zM21.892 1.246l-.15 1.053c-.795-.215-1.525-.172-1.998-.022-.623.194-.945.538-.816.967.408 1.354 3.566-.386 4.232 1.87.344 1.117-.43 2.083-1.805 2.513-.988.3-2.02.172-2.835-.215l.171-1.053c.817.387 1.72.473 2.385.28.73-.215 1.074-.623.945-1.117-.43-1.397-3.544.408-4.21-1.805-.323-1.074.386-2.02 1.74-2.428.773-.28 1.633-.258 2.341-.043zM29.67 1.182l-.28 5.5-1.095-.065.3-5.521-2.062-.108.043-.988 5.2.28-.044.988-2.062-.086zM37.533 2.879l-.687 1.611 2.922 1.246-.387.903-2.922-1.246-.71 1.654 3.374 1.44-.387.902-4.383-1.87 2.557-5.972 4.275 1.826-.386.902-3.266-1.396zM44.988 11.988c-.064-.064-.15-.129-.215-.193l-1.095-1.096-1.375 1.397-.774-.774 4.598-4.619 1.87 1.87c1.18 1.18 1.288 2.427.278 3.415-.73.73-1.59.924-2.449.537l-.494 2.579-.88-.881.536-2.235zm.494-.902c.71.709 1.418.816 2.041.193.602-.601.495-1.31-.236-2.02l-1.096-1.095-1.826 1.826 1.117 1.096zM54.291 19.637l-1.074-.022c.107-.816-.022-1.547-.215-1.998-.258-.58-.645-.88-1.053-.687-1.31.58.817 3.48-1.332 4.425-1.052.473-2.127-.171-2.707-1.482-.408-.945-.43-1.998-.129-2.857l1.053.043c-.3.859-.258 1.761.021 2.406.301.687.753.988 1.225.795 1.332-.58-.838-3.48 1.29-4.405 1.03-.45 2.04.15 2.62 1.44.323.752.43 1.611.301 2.342zM27.693 18.133l-4.017 8.271-4.447-3.845v13.685h16.929V22.56l-4.447 3.845-4.018-8.271zm0 2.6 3.137 6.445-3.137 2.707-3.136-2.707 3.136-6.445zm-4.511 6.724-2.793 5.758v-8.186l2.793 2.428zm-2.471 7.649 3.352-6.897 3.652 3.158 3.652-3.158 3.352 6.897H20.71zm14.33-10.077v8.186l-2.793-5.758 2.793-2.428z" fill="#fff"/><path d="M27.693 11.258c-9.668 0-17.51 7.863-17.51 17.51 0 9.668 7.864 17.51 17.51 17.51 9.647 0 17.51-7.864 17.51-17.51.022-9.647-7.842-17.51-17.51-17.51zm0 33.924c-9.045 0-16.392-7.348-16.392-16.393 0-9.045 7.347-16.392 16.392-16.392 9.045 0 16.393 7.347 16.393 16.392 0 9.045-7.348 16.393-16.393 16.393z" fill="#fff"/>
        </symbol>
    </defs>
</svg>