<svg width="24" height="24" viewBox="0 0 24 24" fill="none" xmlns="http://www.w3.org/2000/svg">
<path fill-rule="evenodd" clip-rule="evenodd" d="M2.35355 6.6464C2.54882 6.45114 2.8654 6.45114 3.06066 6.6464L12.3536 15.9393C12.5488 16.1346 12.5488 16.4511 12.3536 16.6464C12.1583 16.8417 11.8417 16.8417 11.6464 16.6464L2.35355 7.35351C2.15829 7.15824 2.15829 6.84166 2.35355 6.6464Z" fill="white"/>
<path fill-rule="evenodd" clip-rule="evenodd" d="M21.6464 6.6464C21.4512 6.45114 21.1346 6.45114 20.9393 6.6464L11.6464 15.9393C11.4512 16.1346 11.4512 16.4511 11.6464 16.6464C11.8417 16.8417 12.1583 16.8417 12.3536 16.6464L21.6464 7.35351C21.8417 7.15824 21.8417 6.84166 21.6464 6.6464Z" fill="white"/>
</svg>
