<svg width="24" height="24" viewBox="0 0 24 24" fill="none" xmlns="http://www.w3.org/2000/svg">
<path d="M12 8.67143C10.1571 8.67143 8.67143 10.1714 8.67143 12C8.67143 13.8286 10.1714 15.3286 12 15.3286C13.8286 15.3286 15.3286 13.8286 15.3286 12C15.3286 10.1714 13.8286 8.67143 12 8.67143ZM22 12C22 10.6143 22 9.25714 21.9286 7.87143C21.8571 6.27143 21.4857 4.84286 20.3143 3.68571C19.1429 2.51429 17.7286 2.14286 16.1286 2.07143C14.7429 2 13.3857 2 12 2C10.6143 2 9.25714 2 7.87143 2.07143C6.27143 2.14286 4.84286 2.51429 3.68571 3.68571C2.51429 4.85714 2.14286 6.27143 2.07143 7.87143C2 9.25714 2 10.6143 2 12C2 13.3857 2 14.7429 2.07143 16.1286C2.14286 17.7286 2.51429 19.1571 3.68571 20.3143C4.85714 21.4857 6.27143 21.8571 7.87143 21.9286C9.25714 22 10.6143 22 12 22C13.3857 22 14.7429 22 16.1286 21.9286C17.7286 21.8571 19.1571 21.4857 20.3143 20.3143C21.4857 19.1429 21.8571 17.7286 21.9286 16.1286C22.0143 14.7571 22 13.3857 22 12ZM12 17.1286C9.15714 17.1286 6.87143 14.8429 6.87143 12C6.87143 9.15714 9.15714 6.87143 12 6.87143C14.8429 6.87143 17.1286 9.15714 17.1286 12C17.1286 14.8429 14.8429 17.1286 12 17.1286ZM17.3429 7.85714C16.6857 7.85714 16.1429 7.32857 16.1429 6.65714C16.1429 5.98571 16.6714 5.45714 17.3429 5.45714C18.0143 5.45714 18.5429 5.98571 18.5429 6.65714C18.5465 6.81362 18.5179 6.96918 18.4589 7.11416C18.4 7.25915 18.3118 7.39048 18.2 7.5C18.0905 7.61182 17.9592 7.69995 17.8142 7.75893C17.6692 7.81791 17.5136 7.84647 17.3571 7.84286L17.3429 7.85714Z" fill="#EF4934"/>
</svg>
