<svg width="64" height="64" viewBox="0 0 64 64" fill="none" xmlns="http://www.w3.org/2000/svg">
<path d="M6.04102 41.6837H4.45119L4 40.631L11.1113 40.7599L11.541 41.7911L6.64259 46.9259L6.19142 45.8517L7.3086 44.713L6.04102 41.6837ZM10.2305 41.7052L7.09376 41.6837L8.03907 43.9396L10.2305 41.7052Z" fill="white"/>
<path d="M17.1486 50.8788L16.1174 50.9647C16.1603 50.2772 15.924 49.5682 15.4514 49.0741C14.549 48.1288 13.1096 48.0858 12.1857 48.9882C11.2619 49.869 11.2404 51.3085 12.1428 52.2538C12.5939 52.7264 13.2814 53.0057 13.9475 53.0272L13.883 53.994C12.9592 53.9725 12.0139 53.5858 11.3693 52.9198C10.0588 51.5448 10.0588 49.4823 11.4123 48.1932C12.7443 46.9042 14.8068 47.0116 16.1389 48.3866C16.8049 49.0741 17.1701 49.9979 17.1486 50.8788Z" fill="white"/>
<path d="M18.91 56.7227L17.7284 57.7969L16.6971 57.3242L22.0038 52.5977L23.035 53.0703L22.9276 60.1816L21.8534 59.6875L21.8964 58.0977L18.91 56.7227ZM22.0038 53.8867L19.6835 56.0137L21.9178 57.0234L22.0038 53.8867Z" fill="white"/>
<path d="M30.8126 54.8107C32.7677 54.8751 34.1212 56.2931 34.0568 58.1837C33.9923 60.0529 32.5099 61.3849 30.5333 61.3204L27.8907 61.213L28.1271 54.7032L30.8126 54.8107ZM29.0294 60.2677L30.6193 60.3322C31.8868 60.3751 32.8751 59.4728 32.9396 58.1622C32.9825 56.8302 32.0372 55.8419 30.7482 55.799L29.2013 55.7345L29.0294 60.2677Z" fill="white"/>
<path d="M38.3535 54.8534L38.9336 56.5077L41.9414 55.4335L42.2637 56.3573L39.2559 57.4315L39.8574 59.1288L43.3164 57.9042L43.6387 58.828L39.1485 60.4178L36.957 54.2733L41.3398 52.705L41.6621 53.6288L38.3535 54.8534Z" fill="white"/>
<path d="M52.8555 52.1035L49.5469 48.5371L50.8789 53.0059L50.3418 53.5L46.0019 51.8242L49.3105 55.3906L48.5586 56.0996L44.1543 51.3086L45.1211 50.4277L49.6328 52.1465L48.2793 47.5059L49.2246 46.625L53.6289 51.416L52.8555 52.1035Z" fill="white"/>
<path d="M57.9688 43.9824L57.5176 44.9707L55.584 44.0898L50.5996 44.5195L51.0508 43.5098L54.7031 43.123L52.5547 40.1582L53.0059 39.1484L55.9922 43.1016L57.9688 43.9824Z" fill="white"/>
<path d="M6.47058 30.4689L5.58973 32.2736L4.64441 31.4786V34.2072H8.29675V31.4786L7.35146 32.2736L6.47058 30.4689Z" fill="white"/>
<path d="M58.0546 32.2736L57.1737 30.4689L56.2929 32.2736L55.3475 31.4786V34.2072H58.9999V31.4786L58.0546 32.2736Z" fill="white"/>
<path d="M13.0663 20.5859L8.72643 18.3945L11.5194 22.1328L11.1971 22.7773L6.53503 22.7129L10.8749 24.9258L10.4022 25.8496L4.60144 22.9063L5.18151 21.7461L10.0155 21.7891L7.13661 17.9219L7.71667 16.7617L13.5175 19.7051L13.0663 20.5859Z" fill="white"/>
<path d="M15.8164 15.2363L16.2246 16.7832L15.3223 17.4922L13.5605 10.5957L14.4414 9.9082L20.6934 13.2598L19.7695 13.9902L18.3731 13.2168L15.8164 15.2363ZM14.6992 11.1758L15.5156 14.2051L17.4492 12.6797L14.6992 11.1758Z" fill="white"/>
<path d="M25.8926 5.24618L25.7422 6.29892C24.9473 6.08407 24.2168 6.12704 23.7441 6.27743C23.1211 6.47079 22.7988 6.81454 22.9277 7.24423C23.3359 8.59774 26.4941 6.85751 27.1601 9.11337C27.5039 10.2306 26.7305 11.1974 25.3555 11.627C24.3672 11.9278 23.3359 11.7989 22.5195 11.4122L22.6914 10.3595C23.5078 10.7462 24.4102 10.8321 25.0762 10.6388C25.8066 10.4239 26.1504 10.0157 26.0215 9.52157C25.5918 8.12509 22.4766 9.92978 21.8105 7.71688C21.4883 6.64267 22.1972 5.69735 23.5508 5.28915C24.3242 5.00985 25.1836 5.03134 25.8926 5.24618Z" fill="white"/>
<path d="M33.6698 5.18164L33.3905 10.6816L32.2948 10.6172L32.5956 5.0957L30.5331 4.98828L30.5761 4L35.7753 4.2793L35.7323 5.26758L33.6698 5.18164Z" fill="white"/>
<path d="M41.5331 6.87891L40.8456 8.49023L43.7675 9.73633L43.3807 10.6387L40.4589 9.39258L39.7499 11.0469L43.1229 12.4863L42.7362 13.3887L38.3534 11.5195L40.91 5.54688L45.1854 7.37305L44.7987 8.27539L41.5331 6.87891Z" fill="white"/>
<path d="M48.9883 15.9883C48.9238 15.9238 48.8379 15.8594 48.7734 15.7949L47.6777 14.6992L46.3027 16.0957L45.5293 15.3223L50.127 10.7031L51.9961 12.5723C53.1777 13.7539 53.2852 15 52.2754 15.9883C51.5449 16.7188 50.6855 16.9121 49.8262 16.5254L49.332 19.1035L48.4512 18.2227L48.9883 15.9883ZM49.4824 15.0859C50.1914 15.7949 50.9004 15.9023 51.5234 15.2793C52.125 14.6777 52.0176 13.9688 51.2871 13.2598L50.1914 12.1641L48.3652 13.9902L49.4824 15.0859Z" fill="white"/>
<path d="M58.2911 23.6367L57.2169 23.6153C57.3243 22.7989 57.1954 22.0684 57.0021 21.6172C56.7443 21.0371 56.3575 20.7364 55.9493 20.9297C54.6388 21.5098 56.7657 24.4102 54.6173 25.3555C53.5646 25.8282 52.4903 25.1836 51.9103 23.8731C51.5021 22.9278 51.4806 21.875 51.7814 21.0157L52.8341 21.0586C52.5333 21.918 52.5763 22.8203 52.8556 23.4649C53.1564 24.1524 53.6075 24.4532 54.0802 24.2598C55.4122 23.6797 53.2423 20.7793 55.3693 19.8555C56.4005 19.4043 57.4103 20.0059 57.9903 21.2949C58.3126 22.0469 58.42 22.9063 58.2911 23.6367Z" fill="white"/>
<path d="M31.6934 22.1329L27.6758 30.4044L23.2285 26.5587V40.2443H24.1738H39.2129H40.1582V26.5587L35.711 30.4044L31.6934 22.1329ZM31.6934 24.7325L34.8301 31.1779L31.6934 33.8849L28.5567 31.1779L31.6934 24.7325ZM27.1816 31.4572L24.3887 37.215V29.0294L27.1816 31.4572ZM24.7109 39.1056L28.0625 32.2091L31.7148 35.3673L35.3672 32.2091L38.7188 39.1056H24.7109ZM39.041 29.0294V37.215L36.2481 31.4572L39.041 29.0294Z" fill="white"/>
<path d="M31.6934 15.2579C22.0254 15.2579 14.1836 23.1212 14.1836 32.7677C14.1836 42.4357 22.0469 50.2775 31.6934 50.2775C41.3398 50.2775 49.2031 42.4142 49.2031 32.7677C49.2246 23.1212 41.3613 15.2579 31.6934 15.2579ZM31.6934 49.1818C22.6484 49.1818 15.3008 41.8341 15.3008 32.7892C15.3008 23.7443 22.6484 16.3966 31.6934 16.3966C40.7383 16.3966 48.0859 23.7443 48.0859 32.7892C48.0859 41.8341 40.7383 49.1818 31.6934 49.1818Z" fill="white"/>
</svg>
