<svg width="55" height="58" viewBox="0 0 55 58" fill="none" xmlns="http://www.w3.org/2000/svg">
<path d="M2.04102 37.6837H0.451193L0 36.631L7.11135 36.7599L7.54104 37.7911L2.64259 42.9259L2.19142 41.8517L3.3086 40.713L2.04102 37.6837ZM6.23047 37.7052L3.09376 37.6837L4.03907 39.9395L6.23047 37.7052Z" fill="white"/>
<path d="M13.1486 46.8788L12.1174 46.9647C12.1603 46.2772 11.924 45.5682 11.4513 45.0741C10.549 44.1288 9.10956 44.0858 8.18573 44.9882C7.26191 45.869 7.24041 47.3085 8.14275 48.2538C8.59392 48.7264 9.28143 49.0057 9.94744 49.0272L9.88298 49.994C8.95915 49.9725 8.01385 49.5858 7.36932 48.9198C6.05877 47.5448 6.05876 45.4823 7.41228 44.1932C8.74431 42.9042 10.8068 43.0116 12.1388 44.3866C12.8049 45.0741 13.1701 45.9979 13.1486 46.8788Z" fill="white"/>
<path d="M14.91 52.7226L13.7284 53.7968L12.6972 53.3242L18.0038 48.5976L19.035 49.0703L18.9276 56.1816L17.8534 55.6874L17.8964 54.0976L14.91 52.7226ZM18.0038 49.8867L15.6835 52.0136L17.9178 53.0234L18.0038 49.8867Z" fill="white"/>
<path d="M26.8126 50.8106C28.7677 50.8751 30.1212 52.2931 30.0567 54.1837C29.9923 56.0528 28.5099 57.3849 26.5333 57.3204L23.8907 57.213L24.1271 50.7032L26.8126 50.8106ZM25.0294 56.2677L26.6192 56.3321C27.8868 56.3751 28.8751 55.4727 28.9396 54.1622C28.9825 52.8302 28.0372 51.8419 26.7481 51.7989L25.2013 51.7345L25.0294 56.2677Z" fill="white"/>
<path d="M34.3535 50.8534L34.9336 52.5077L37.9414 51.4335L38.2637 52.3573L35.2559 53.4315L35.8574 55.1288L39.3164 53.9042L39.6387 54.828L35.1485 56.4179L32.957 50.2733L37.3398 48.705L37.6621 49.6288L34.3535 50.8534Z" fill="white"/>
<path d="M48.8555 48.1035L45.5469 44.5371L46.8789 49.0058L46.3418 49.5L42.0019 47.8242L45.3105 51.3906L44.5586 52.0996L40.1543 47.3086L41.1211 46.4277L45.6328 48.1465L44.2793 43.5058L45.2246 42.625L49.6289 47.416L48.8555 48.1035Z" fill="white"/>
<path d="M53.9688 39.9824L53.5176 40.9707L51.584 40.0898L46.5996 40.5195L47.0508 39.5098L50.7031 39.123L48.5547 36.1582L49.0059 35.1484L51.9922 39.1016L53.9688 39.9824Z" fill="white"/>
<path d="M2.4706 26.4689L1.58974 28.2736L0.644424 27.4786V30.2072H4.29677V27.4786L3.35148 28.2736L2.4706 26.4689Z" fill="white"/>
<path d="M54.0546 28.2736L53.1737 26.4689L52.2929 28.2736L51.3476 27.4786V30.2072H54.9999V27.4786L54.0546 28.2736Z" fill="white"/>
<path d="M9.06632 16.586L4.72646 14.3946L7.51943 18.1329L7.19716 18.7774L2.53506 18.713L6.8749 20.9258L6.40225 21.8497L0.601471 18.9063L1.18154 17.7462L6.01552 17.7891L3.13664 13.9219L3.7167 12.7618L9.51749 15.7051L9.06632 16.586Z" fill="white"/>
<path d="M11.8164 11.2363L12.2246 12.7832L11.3223 13.4922L9.56056 6.59567L10.4414 5.90817L16.6934 9.25974L15.7696 9.9902L14.3731 9.21677L11.8164 11.2363ZM10.6992 7.17575L11.5157 10.205L13.4493 8.67966L10.6992 7.17575Z" fill="white"/>
<path d="M21.8926 1.24612L21.7422 2.29885C20.9473 2.08401 20.2168 2.12698 19.7441 2.27737C19.1211 2.47073 18.7988 2.81448 18.9277 3.24417C19.3359 4.59768 22.4941 2.85745 23.1601 5.11331C23.5039 6.23049 22.7305 7.19729 21.3555 7.62698C20.3672 7.92776 19.3359 7.79885 18.5195 7.41214L18.6914 6.3594C19.5078 6.74612 20.4102 6.83206 21.0762 6.6387C21.8066 6.42385 22.1504 6.01565 22.0215 5.52151C21.5918 4.12503 18.4766 5.92971 17.8105 3.71682C17.4883 2.6426 18.1972 1.69729 19.5508 1.28909C20.3242 1.00979 21.1836 1.03128 21.8926 1.24612Z" fill="white"/>
<path d="M29.6699 1.18164L29.3905 6.68164L28.2948 6.61719L28.5956 1.0957L26.5331 0.988281L26.5761 0L31.7753 0.279297L31.7323 1.26758L29.6699 1.18164Z" fill="white"/>
<path d="M37.5331 2.87891L36.8456 4.49023L39.7675 5.73633L39.3808 6.63867L36.4589 5.39258L35.7499 7.04688L39.123 8.48633L38.7362 9.38867L34.3534 7.51953L36.9101 1.54688L41.1855 3.37305L40.7987 4.27539L37.5331 2.87891Z" fill="white"/>
<path d="M44.9883 11.9883C44.9238 11.9239 44.8379 11.8594 44.7734 11.795L43.6777 10.6992L42.3027 12.0957L41.5293 11.3223L46.127 6.70316L47.9961 8.5723C49.1777 9.75394 49.2852 11 48.2754 11.9883C47.5449 12.7188 46.6856 12.9121 45.8262 12.5254L45.332 15.1035L44.4512 14.2227L44.9883 11.9883ZM45.4824 11.086C46.1914 11.795 46.9004 11.9024 47.5235 11.2793C48.125 10.6778 48.0176 9.96878 47.2871 9.2598L46.1914 8.16409L44.3652 9.99027L45.4824 11.086Z" fill="white"/>
<path d="M54.2911 19.6368L53.2169 19.6153C53.3243 18.7989 53.1954 18.0684 53.0021 17.6172C52.7443 17.0372 52.3575 16.7364 51.9493 16.9297C50.6388 17.5098 52.7657 20.4102 50.6173 21.3555C49.5646 21.8282 48.4903 21.1837 47.9103 19.8731C47.5021 18.9278 47.4806 17.8751 47.7814 17.0157L48.8341 17.0587C48.5333 17.918 48.5763 18.8204 48.8556 19.4649C49.1564 20.1524 49.6075 20.4532 50.0802 20.2598C51.4122 19.6797 49.2423 16.7794 51.3693 15.8555C52.4005 15.4044 53.4103 16.0059 53.9903 17.295C54.3126 18.0469 54.42 18.9063 54.2911 19.6368Z" fill="white"/>
<path d="M27.6934 18.133L23.6758 26.4044L19.2285 22.5587V36.2443H20.1738H35.2129H36.1582V22.5587L31.711 26.4044L27.6934 18.133ZM27.6934 20.7326L30.8301 27.1779L27.6934 29.8849L24.5567 27.1779L27.6934 20.7326ZM23.1816 27.4572L20.3887 33.215V25.0294L23.1816 27.4572ZM20.7109 35.1056L24.0625 28.2091L27.7148 31.3673L31.3672 28.2091L34.7188 35.1056H20.7109ZM35.041 25.0294V33.215L32.2481 27.4572L35.041 25.0294Z" fill="white"/>
<path d="M27.6934 11.2579C18.0254 11.2579 10.1836 19.1212 10.1836 28.7677C10.1836 38.4357 18.0469 46.2775 27.6934 46.2775C37.3398 46.2775 45.2031 38.4142 45.2031 28.7677C45.2246 19.1212 37.3613 11.2579 27.6934 11.2579ZM27.6934 45.1818C18.6484 45.1818 11.3008 37.8341 11.3008 28.7892C11.3008 19.7443 18.6484 12.3966 27.6934 12.3966C36.7383 12.3966 44.0859 19.7443 44.0859 28.7892C44.0859 37.8341 36.7383 45.1818 27.6934 45.1818Z" fill="white"/>
</svg>
